<svg width="20" height="20" viewBox="0 0 20 20" fill="none" xmlns="http://www.w3.org/2000/svg">
<g clip-path="url(#clip0_162_11)">
<path d="M10 0C15.5228 0 20 4.47715 20 10C20 15.5228 15.5228 20 10 20C4.47715 20 0 15.5228 0 10C0 4.47715 4.47715 0 10 0ZM12.0391 4.66016C12.0022 4.65926 11.9687 4.67545 11.9443 4.70312C11.8814 4.77506 11.913 4.88844 12.0039 4.91797C12.1261 4.95765 12.2443 4.99786 12.3584 5.03906C12.7709 5.18806 12.612 5.50113 12.1836 5.40723C11.8397 5.33185 11.5013 5.27668 11.1699 5.23828C10.2836 5.13983 9.43352 5.1642 8.68262 5.2627C8.61828 5.26273 8.56295 5.27165 8.50098 5.28223L8.47363 5.28711C8.04277 5.32407 6.99659 5.48409 5.67969 6.0625C5.56664 6.1144 5.49759 6.0063 5.60254 5.93945C6.10764 5.61767 6.91455 5.19209 8.04785 4.84961C8.1147 4.8294 8.14044 4.74703 8.0957 4.69336C8.0778 4.67185 8.05144 4.65964 8.02344 4.66016C7.80694 4.66413 6.81786 4.71584 5.62793 5.31738C4.92087 5.67484 4.40602 6.30876 4.10352 7.04102C3.68718 8.04887 3.13232 9.67822 2.92188 11.5928C2.81185 12.5948 3.08693 13.6417 3.92676 14.1992C4.46965 14.5596 5.23416 14.8926 6.26074 14.9805C6.46734 14.9981 6.6669 14.9059 6.79785 14.7451C6.86275 14.6654 6.93936 14.5722 7.02051 14.4717C7.21092 14.2359 7.09895 13.8824 6.82227 13.7588C6.16346 13.4644 5.74026 13.0905 5.50293 12.832C5.44212 12.7657 5.50839 12.6806 5.58691 12.7246C5.59386 12.7286 5.60878 12.7379 5.61426 12.7432C5.62416 12.7526 5.63562 12.7621 5.6543 12.7715C5.67272 12.7838 5.69149 12.7935 5.70996 12.8027C5.72838 12.812 5.74716 12.8207 5.76562 12.833C6.07335 13.0053 6.38098 13.1412 6.66406 13.252C7.16874 13.4489 7.77198 13.6459 8.47363 13.7812C9.39688 13.9536 10.4803 14.0155 11.6621 13.7939C12.2407 13.6954 12.8318 13.5231 13.4473 13.2646C13.8046 13.132 14.0041 13.3906 13.6719 13.5771C13.5509 13.6449 13.4192 13.7111 13.2773 13.7734C12.9798 13.9041 12.8568 14.2835 13.0625 14.5352C13.1291 14.6167 13.192 14.6924 13.2461 14.7578C13.3728 14.9111 13.5644 14.998 13.7627 14.9814C14.7861 14.8963 15.552 14.5677 16.0986 14.21C16.9555 13.6491 17.2386 12.5851 17.125 11.5674C16.9142 9.67892 16.3694 8.07062 15.9561 7.06543C15.6481 6.31648 15.1217 5.66816 14.3975 5.30566C13.2403 4.72655 12.278 4.66596 12.0391 4.66016ZM7.72266 9.25098C8.42416 9.25098 8.99058 9.86645 8.97852 10.6172C8.97852 11.3681 8.42431 11.9844 7.72266 11.9844C7.03332 11.9843 6.4668 11.368 6.4668 10.6172C6.46702 9.8665 7.02117 9.25106 7.72266 9.25098ZM12.2158 9.25098C12.9173 9.25098 13.4715 9.86645 13.4717 10.6172C13.4717 11.3681 12.9175 11.9844 12.2158 11.9844C11.5265 11.9843 10.96 11.368 10.96 10.6172C10.9602 9.86649 11.5143 9.25105 12.2158 9.25098Z" fill="white"/>
</g>
<defs>
<clipPath id="clip0_162_11">
<rect width="20" height="20" fill="white"/>
</clipPath>
</defs>
</svg>
