<svg width="20" height="20" viewBox="0 0 20 20" fill="none" xmlns="http://www.w3.org/2000/svg">
<g clip-path="url(#clip0_162_19)">
<path d="M10 0C15.5228 0 20 4.47715 20 10C20 15.5228 15.5228 20 10 20C4.47715 20 0 15.5228 0 10C0 4.47715 4.47715 0 10 0ZM14.9785 6.54492C14.9056 5.93159 14.1619 6.06618 13.748 6.2041C11.6209 7.01351 9.51455 7.88284 7.41699 8.76758C6.19792 9.30766 4.89344 9.84545 3.72461 10.4893C3.15504 10.9062 4.12262 11.1817 4.7832 11.4551C5.51994 11.6816 6.37914 12.0288 7.11621 11.623C8.5592 10.7941 9.89404 9.79277 11.2627 8.84961C11.5117 8.69022 12.2669 8.17051 12.0117 8.78711C11.0643 9.82323 10.0036 10.6603 9.00391 11.6455C8.6535 11.9303 8.28964 12.5035 8.68164 12.9023C9.87992 13.7413 11.1036 14.5531 12.3174 15.373C12.8224 15.7763 13.6115 15.4503 13.7227 14.8203C14.0449 12.9286 14.3762 11.0367 14.6621 9.13867C14.7748 8.2758 14.9385 7.41288 14.9785 6.54492Z" fill="white"/>
</g>
<defs>
<clipPath id="clip0_162_19">
<rect width="20" height="20" fill="white"/>
</clipPath>
</defs>
</svg>
