<svg width="50" height="50" viewBox="0 0 50 50" fill="none" xmlns="http://www.w3.org/2000/svg">
<g clip-path="url(#clip0_146_426)">
<path d="M25 50C38.8071 50 50 38.8071 50 25C50 11.1929 38.8071 0 25 0C11.1929 0 0 11.1929 0 25C0 38.8071 11.1929 50 25 50Z" fill="#0033AD"/>
<g filter="url(#filter0_d_146_426)">
<path d="M24.5706 9.46883C25.319 9.08289 26.2331 9.97508 25.8362 10.711C25.6034 11.311 24.7268 11.4704 24.28 11.0126C23.8065 10.5751 23.9612 9.70633 24.5706 9.46727V9.46883ZM16.5159 10.322C16.9706 10.1376 17.5472 10.547 17.5003 11.036C17.5472 11.5641 16.8909 11.9548 16.4268 11.7032C15.8128 11.4688 15.8831 10.4876 16.5159 10.322ZM33.0128 11.7173C32.3018 11.6329 32.1893 10.5329 32.8722 10.311C33.4034 10.0579 33.8909 10.5345 33.969 11.0298C33.8565 11.4516 33.4972 11.8391 33.0128 11.7173ZM18.3487 13.6938C19.1097 13.2204 20.194 13.9251 20.0768 14.7954C20.0378 15.672 18.8534 16.1813 18.1847 15.5876C17.5378 15.122 17.6362 14.0532 18.3487 13.6938ZM29.9581 14.197C30.2972 13.3376 31.6722 13.3095 32.0581 14.147C32.4409 14.7985 31.9706 15.6063 31.2909 15.8282C30.3893 15.9938 29.5347 15.0345 29.9581 14.197ZM23.6003 15.7798C23.5925 15.0391 24.2768 14.4891 24.9909 14.4376C25.4659 14.5313 25.9815 14.7298 26.1847 15.2001C26.5643 15.8501 26.2268 16.7423 25.544 17.0407C25.2315 17.2126 24.8597 17.1485 24.519 17.1282C23.9987 16.8782 23.5597 16.3829 23.6003 15.7798ZM11.6222 16.8579C12.3175 16.436 13.255 17.2016 12.9909 17.9454C12.8472 18.5876 11.969 18.8485 11.4675 18.4391C10.9315 18.0548 11.0159 17.1313 11.6237 16.8563L11.6222 16.8579ZM37.344 16.8548C37.9331 16.4048 38.9065 16.922 38.8347 17.6532C38.8753 18.3204 38.0331 18.8251 37.4487 18.4813C36.805 18.1954 36.7378 17.2204 37.344 16.8563V16.8548ZM26.969 18.1845C27.9409 17.8407 29.0972 18.2516 29.6503 19.1063C30.3815 20.1485 29.994 21.736 28.8581 22.3345C27.6831 23.0423 25.9659 22.4438 25.53 21.1501C25.0378 19.9938 25.7565 18.547 26.9675 18.1845H26.969ZM21.2612 18.2985C22.3393 17.7985 23.7909 18.2173 24.3112 19.3016C24.9237 20.3579 24.4503 21.8282 23.355 22.3735C22.2581 22.9876 20.7097 22.522 20.18 21.3891C19.5847 20.2923 20.1128 18.8032 21.2612 18.2985ZM15.5472 20.2188C15.63 19.536 16.2847 19.0907 16.9456 19.0438C17.2903 19.0802 17.6124 19.2325 17.8594 19.4757C18.1063 19.719 18.2634 20.0388 18.305 20.3829C18.2581 21.086 17.7065 21.7704 16.9503 21.7673C16.1175 21.8376 15.3878 21.022 15.5472 20.2188ZM32.4253 19.1938C33.28 18.7048 34.4659 19.4157 34.4284 20.3813C34.4862 21.4048 33.1737 22.1251 32.3237 21.5251C31.4393 21.0251 31.5081 19.6188 32.4253 19.1938ZM18.9409 22.7985C19.9378 22.5282 21.0815 22.9907 21.5706 23.8938C22.1065 24.8032 21.8878 26.0657 21.055 26.7345C19.9847 27.7126 18.0143 27.3188 17.4456 25.9845C16.7909 24.761 17.5862 23.1204 18.9393 22.797L18.9409 22.7985ZM29.7643 22.7938C30.7347 22.5204 31.8753 22.8876 32.3972 23.7579C33.0878 24.7532 32.7581 26.2391 31.7315 26.8798C30.6534 27.6251 28.9878 27.2345 28.394 26.0688C27.6753 24.8641 28.3987 23.161 29.7643 22.7938ZM12.5143 23.9282C13.3768 23.6079 14.3331 24.5438 13.9831 25.386C13.7706 26.1516 12.6722 26.436 12.105 25.8704C11.4409 25.3391 11.6862 24.1595 12.5143 23.9282ZM35.9034 25.1501C35.8872 24.8061 36.0075 24.4697 36.2381 24.2139C36.4686 23.9582 36.7909 23.8038 37.1347 23.7845C37.7253 23.8782 38.3003 24.347 38.2534 24.9798C38.3081 25.8157 37.2847 26.3829 36.5597 25.9907C36.2206 25.8204 36.0472 25.4782 35.9034 25.1501ZM8.27216 24.3438C8.79091 24.1204 9.43309 24.5626 9.31434 25.1298C9.28622 25.772 8.32216 26.0204 7.96903 25.4829C7.65653 25.1095 7.84403 24.536 8.27216 24.3423V24.3438ZM41.005 24.3298C41.3706 24.0751 41.9581 24.2579 42.1018 24.6782C42.3472 25.1376 41.8972 25.7657 41.3722 25.6891C40.6347 25.7548 40.3972 24.6501 41.005 24.3298ZM21.7597 27.4126C23.1253 27.0641 24.594 28.1845 24.6034 29.5688C24.6909 30.9673 23.244 32.2063 21.8472 31.8845C20.7659 31.7126 19.9175 30.6876 19.9534 29.6141C19.9503 28.586 20.7378 27.6298 21.7597 27.4126ZM27.169 27.411C28.555 27.0298 30.0675 28.1704 30.0456 29.586C30.119 30.9579 28.7175 32.1563 27.3487 31.8829C26.0597 31.7204 25.1097 30.3282 25.469 29.097C25.6503 28.2782 26.3472 27.6126 27.169 27.4095V27.411ZM16.7378 28.2626C17.6972 28.1016 18.5972 29.1532 18.2081 30.0501C17.9237 31.0063 16.5112 31.2641 15.8862 30.4845C15.155 29.7345 15.7018 28.3657 16.7378 28.2626ZM32.6034 28.3048C33.4597 27.9516 34.5097 28.6798 34.444 29.5938C34.4784 30.5985 33.1815 31.2923 32.3456 30.7048C31.3972 30.1782 31.5706 28.6266 32.6034 28.3048ZM37.0378 32.6798C36.7034 32.0657 37.3112 31.2516 38.0065 31.3657C38.3503 31.3595 38.5925 31.6266 38.8128 31.8516C38.8581 32.2157 38.9347 32.6501 38.6268 32.9298C38.2097 33.4501 37.2643 33.3016 37.0378 32.6798ZM11.619 31.536C12.2675 31.1126 13.2003 31.7454 13.0534 32.4891C12.9753 33.1501 12.1315 33.5266 11.5768 33.1516C10.98 32.8126 11.0018 31.8454 11.619 31.536ZM24.4206 32.9157C25.269 32.5485 26.3503 33.2751 26.269 34.1938C26.3315 35.2095 24.9956 35.9126 24.1659 35.3032C23.244 34.7798 23.3987 33.2391 24.4206 32.9157ZM18.4925 34.2766C19.2143 33.9032 20.1831 34.5485 20.1175 35.3454C20.1393 35.9985 19.4925 36.5548 18.8362 36.4579C18.294 36.447 17.9409 35.9673 17.7659 35.5126C17.7753 35.0173 17.9831 34.4657 18.4925 34.2782V34.2766ZM30.5018 34.2891C31.2456 33.836 32.3018 34.486 32.2315 35.336C32.2503 36.2266 31.0565 36.7954 30.3643 36.211C29.6956 35.7532 29.7768 34.6532 30.5018 34.2891ZM32.5909 39.3673C32.2597 38.8766 32.6487 38.2845 33.1847 38.172C33.6175 38.2579 34.0753 38.5782 33.9831 39.0688C33.9206 39.736 32.93 39.9391 32.5909 39.3688V39.3673ZM16.0112 38.9407C16.1425 38.5501 16.4612 38.1641 16.9284 38.2657C17.6081 38.3126 17.8097 39.322 17.2143 39.6329C16.68 39.9876 16.0581 39.5016 16.0112 38.9407ZM24.0112 39.3891C24.1409 38.811 24.8987 38.5313 25.3987 38.8376C25.73 38.9782 25.8268 39.3407 25.9112 39.6501C25.8666 39.8108 25.825 39.9723 25.7862 40.1345C25.5815 40.372 25.3175 40.611 24.9768 40.6032C24.344 40.6766 23.7722 39.972 24.0097 39.3891H24.0112Z" fill="black"/>
</g>
<path d="M24.5706 9.46883C25.319 9.08289 26.2331 9.97508 25.8362 10.711C25.6034 11.311 24.7268 11.4704 24.28 11.0126C23.8065 10.5751 23.9612 9.70633 24.5706 9.46727V9.46883ZM16.5159 10.322C16.9706 10.1376 17.5472 10.547 17.5003 11.036C17.5472 11.5641 16.8909 11.9548 16.4268 11.7032C15.8128 11.4688 15.8831 10.4876 16.5159 10.322ZM33.0128 11.7173C32.3018 11.6329 32.1893 10.5329 32.8722 10.311C33.4034 10.0579 33.8909 10.5345 33.969 11.0298C33.8565 11.4516 33.4972 11.8391 33.0128 11.7173ZM18.3487 13.6938C19.1097 13.2204 20.194 13.9251 20.0768 14.7954C20.0378 15.672 18.8534 16.1813 18.1847 15.5876C17.5378 15.122 17.6362 14.0532 18.3487 13.6938ZM29.9581 14.197C30.2972 13.3376 31.6722 13.3095 32.0581 14.147C32.4409 14.7985 31.9706 15.6063 31.2909 15.8282C30.3893 15.9938 29.5347 15.0345 29.9581 14.197ZM23.6003 15.7798C23.5925 15.0391 24.2768 14.4891 24.9909 14.4376C25.4659 14.5313 25.9815 14.7298 26.1847 15.2001C26.5643 15.8501 26.2268 16.7423 25.544 17.0407C25.2315 17.2126 24.8597 17.1485 24.519 17.1282C23.9987 16.8782 23.5597 16.3829 23.6003 15.7798ZM11.6222 16.8579C12.3175 16.436 13.255 17.2016 12.9909 17.9454C12.8472 18.5876 11.969 18.8485 11.4675 18.4391C10.9315 18.0548 11.0159 17.1313 11.6237 16.8563L11.6222 16.8579ZM37.344 16.8548C37.9331 16.4048 38.9065 16.922 38.8347 17.6532C38.8753 18.3204 38.0331 18.8251 37.4487 18.4813C36.805 18.1954 36.7378 17.2204 37.344 16.8563V16.8548ZM26.969 18.1845C27.9409 17.8407 29.0972 18.2516 29.6503 19.1063C30.3815 20.1485 29.994 21.736 28.8581 22.3345C27.6831 23.0423 25.9659 22.4438 25.53 21.1501C25.0378 19.9938 25.7565 18.547 26.9675 18.1845H26.969ZM21.2612 18.2985C22.3393 17.7985 23.7909 18.2173 24.3112 19.3016C24.9237 20.3579 24.4503 21.8282 23.355 22.3735C22.2581 22.9876 20.7097 22.522 20.18 21.3891C19.5847 20.2923 20.1128 18.8032 21.2612 18.2985ZM15.5472 20.2188C15.63 19.536 16.2847 19.0907 16.9456 19.0438C17.2903 19.0802 17.6124 19.2325 17.8594 19.4757C18.1063 19.719 18.2634 20.0388 18.305 20.3829C18.2581 21.086 17.7065 21.7704 16.9503 21.7673C16.1175 21.8376 15.3878 21.022 15.5472 20.2188ZM32.4253 19.1938C33.28 18.7048 34.4659 19.4157 34.4284 20.3813C34.4862 21.4048 33.1737 22.1251 32.3237 21.5251C31.4393 21.0251 31.5081 19.6188 32.4253 19.1938ZM18.9409 22.7985C19.9378 22.5282 21.0815 22.9907 21.5706 23.8938C22.1065 24.8032 21.8878 26.0657 21.055 26.7345C19.9847 27.7126 18.0143 27.3188 17.4456 25.9845C16.7909 24.761 17.5862 23.1204 18.9393 22.797L18.9409 22.7985ZM29.7643 22.7938C30.7347 22.5204 31.8753 22.8876 32.3972 23.7579C33.0878 24.7532 32.7581 26.2391 31.7315 26.8798C30.6534 27.6251 28.9878 27.2345 28.394 26.0688C27.6753 24.8641 28.3987 23.161 29.7643 22.7938ZM12.5143 23.9282C13.3768 23.6079 14.3331 24.5438 13.9831 25.386C13.7706 26.1516 12.6722 26.436 12.105 25.8704C11.4409 25.3391 11.6862 24.1595 12.5143 23.9282ZM35.9034 25.1501C35.8872 24.8061 36.0075 24.4697 36.2381 24.2139C36.4686 23.9582 36.7909 23.8038 37.1347 23.7845C37.7253 23.8782 38.3003 24.347 38.2534 24.9798C38.3081 25.8157 37.2847 26.3829 36.5597 25.9907C36.2206 25.8204 36.0472 25.4782 35.9034 25.1501ZM8.27216 24.3438C8.79091 24.1204 9.43309 24.5626 9.31434 25.1298C9.28622 25.772 8.32216 26.0204 7.96903 25.4829C7.65653 25.1095 7.84403 24.536 8.27216 24.3423V24.3438ZM41.005 24.3298C41.3706 24.0751 41.9581 24.2579 42.1018 24.6782C42.3472 25.1376 41.8972 25.7657 41.3722 25.6891C40.6347 25.7548 40.3972 24.6501 41.005 24.3298ZM21.7597 27.4126C23.1253 27.0641 24.594 28.1845 24.6034 29.5688C24.6909 30.9673 23.244 32.2063 21.8472 31.8845C20.7659 31.7126 19.9175 30.6876 19.9534 29.6141C19.9503 28.586 20.7378 27.6298 21.7597 27.4126ZM27.169 27.411C28.555 27.0298 30.0675 28.1704 30.0456 29.586C30.119 30.9579 28.7175 32.1563 27.3487 31.8829C26.0597 31.7204 25.1097 30.3282 25.469 29.097C25.6503 28.2782 26.3472 27.6126 27.169 27.4095V27.411ZM16.7378 28.2626C17.6972 28.1016 18.5972 29.1532 18.2081 30.0501C17.9237 31.0063 16.5112 31.2641 15.8862 30.4845C15.155 29.7345 15.7018 28.3657 16.7378 28.2626ZM32.6034 28.3048C33.4597 27.9516 34.5097 28.6798 34.444 29.5938C34.4784 30.5985 33.1815 31.2923 32.3456 30.7048C31.3972 30.1782 31.5706 28.6266 32.6034 28.3048ZM37.0378 32.6798C36.7034 32.0657 37.3112 31.2516 38.0065 31.3657C38.3503 31.3595 38.5925 31.6266 38.8128 31.8516C38.8581 32.2157 38.9347 32.6501 38.6268 32.9298C38.2097 33.4501 37.2643 33.3016 37.0378 32.6798ZM11.619 31.536C12.2675 31.1126 13.2003 31.7454 13.0534 32.4891C12.9753 33.1501 12.1315 33.5266 11.5768 33.1516C10.98 32.8126 11.0018 31.8454 11.619 31.536ZM24.4206 32.9157C25.269 32.5485 26.3503 33.2751 26.269 34.1938C26.3315 35.2095 24.9956 35.9126 24.1659 35.3032C23.244 34.7798 23.3987 33.2391 24.4206 32.9157ZM18.4925 34.2766C19.2143 33.9032 20.1831 34.5485 20.1175 35.3454C20.1393 35.9985 19.4925 36.5548 18.8362 36.4579C18.294 36.447 17.9409 35.9673 17.7659 35.5126C17.7753 35.0173 17.9831 34.4657 18.4925 34.2782V34.2766ZM30.5018 34.2891C31.2456 33.836 32.3018 34.486 32.2315 35.336C32.2503 36.2266 31.0565 36.7954 30.3643 36.211C29.6956 35.7532 29.7768 34.6532 30.5018 34.2891ZM32.5909 39.3673C32.2597 38.8766 32.6487 38.2845 33.1847 38.172C33.6175 38.2579 34.0753 38.5782 33.9831 39.0688C33.9206 39.736 32.93 39.9391 32.5909 39.3688V39.3673ZM16.0112 38.9407C16.1425 38.5501 16.4612 38.1641 16.9284 38.2657C17.6081 38.3126 17.8097 39.322 17.2143 39.6329C16.68 39.9876 16.0581 39.5016 16.0112 38.9407ZM24.0112 39.3891C24.1409 38.811 24.8987 38.5313 25.3987 38.8376C25.73 38.9782 25.8268 39.3407 25.9112 39.6501C25.8666 39.8108 25.825 39.9723 25.7862 40.1345C25.5815 40.372 25.3175 40.611 24.9768 40.6032C24.344 40.6766 23.7722 39.972 24.0097 39.3891H24.0112Z" fill="white"/>
</g>
<defs>
<filter id="filter0_d_146_426" x="-17.1865" y="-3.12427" width="84.3574" height="81.2327" filterUnits="userSpaceOnUse" color-interpolation-filters="sRGB">
<feFlood flood-opacity="0" result="BackgroundImageFix"/>
<feColorMatrix in="SourceAlpha" type="matrix" values="0 0 0 0 0 0 0 0 0 0 0 0 0 0 0 0 0 0 127 0" result="hardAlpha"/>
<feOffset dy="12.5"/>
<feGaussianBlur stdDeviation="12.5"/>
<feColorMatrix type="matrix" values="0 0 0 0 0 0 0 0 0 0 0 0 0 0 0 0 0 0 0.204257 0"/>
<feBlend mode="normal" in2="BackgroundImageFix" result="effect1_dropShadow_146_426"/>
<feBlend mode="normal" in="SourceGraphic" in2="effect1_dropShadow_146_426" result="shape"/>
</filter>
<clipPath id="clip0_146_426">
<rect width="50" height="50" fill="white"/>
</clipPath>
</defs>
</svg>
