<svg width="50" height="50" viewBox="0 0 50 50" fill="none" xmlns="http://www.w3.org/2000/svg">
<g clip-path="url(#clip0_225_1034)">
<path d="M25 50.0053C38.8114 50.0053 50.0078 38.809 50.0078 24.9975C50.0078 11.1861 38.8114 -0.0102539 25 -0.0102539C11.1886 -0.0102539 -0.0078125 11.1861 -0.0078125 24.9975C-0.0078125 38.809 11.1886 50.0053 25 50.0053Z" fill="white"/>
<path d="M18.6862 17.9673C18.0905 22.1455 15.6759 25.0363 12.399 25.0363L12.3989 32.0274C16.8126 32.0274 17.8969 31.2361 19.7175 28.7724C20.7926 27.3175 22.566 25.0113 24.9735 25.0113V17.9673H18.6862Z" fill="black" stroke="black" stroke-width="1.85296"/>
<path d="M31.287 32.0275C31.8851 27.8492 34.3101 24.9584 37.6007 24.9584L37.6008 17.9673C33.1685 17.9673 32.0797 18.7585 30.2515 21.2222C29.1718 22.6773 27.3908 24.9834 24.9731 24.9834V32.0275H31.287Z" fill="black" stroke="black" stroke-width="1.85296"/>
</g>
<defs>
<clipPath id="clip0_225_1034">
<rect width="50" height="50" fill="white"/>
</clipPath>
</defs>
</svg>
