<svg width="50" height="50" viewBox="0 0 50 50" fill="none" xmlns="http://www.w3.org/2000/svg">
<g clip-path="url(#clip0_146_291)">
<path d="M25 50C38.8071 50 50 38.8071 50 25C50 11.1929 38.8071 0 25 0C11.1929 0 0 11.1929 0 25C0 38.8071 11.1929 50 25 50Z" fill="#988430"/>
<path d="M25 49.1992C38.3648 49.1992 49.1992 38.3648 49.1992 25C49.1992 11.6351 38.3648 0.800781 25 0.800781C11.6351 0.800781 0.800781 11.6351 0.800781 25C0.800781 38.3648 11.6351 49.1992 25 49.1992Z" fill="#7A6A2A"/>
<path d="M24.9999 48.6892C38.0831 48.6892 48.6892 38.0831 48.6892 24.9999C48.6892 11.9166 38.0831 1.31055 24.9999 1.31055C11.9166 1.31055 1.31055 11.9166 1.31055 24.9999C1.31055 38.0831 11.9166 48.6892 24.9999 48.6892Z" fill="#BA9F33"/>
<path fill-rule="evenodd" clip-rule="evenodd" d="M10.9307 22.3302C10.7891 22.2009 10.6395 22.0713 10.5019 21.942C10.3643 21.8126 10.223 21.683 10.0814 21.5537L9.6606 21.1537C9.5918 21.0849 9.519 21.0244 9.4502 20.9553C9.3814 20.8948 9.3006 20.826 9.2318 20.7652C8.6734 20.2353 8.1118 19.7054 7.56113 19.1753C8.13153 19.6972 8.68993 20.2153 9.26033 20.7449L9.45846 20.9433C9.52726 21.0118 9.60006 21.0726 9.66886 21.1414L10.0894 21.5297C10.231 21.659 10.3686 21.7886 10.5102 21.9297C10.6518 22.0708 10.7894 22.2006 10.931 22.3297L10.9307 22.3302ZM3.5198 22.2502C3.5198 22.2502 5.55046 22.4604 6.54166 22.602C7.4598 22.7316 10.3321 23.1724 10.3321 23.1724L3.5198 22.2502ZM3.5198 22.2502C4.0902 22.2988 4.6606 22.3593 5.231 22.4201C5.5222 22.4484 5.8014 22.4806 6.0806 22.5089L6.50913 22.5577C6.65073 22.5777 6.78833 22.598 6.92993 22.6182L8.62913 22.8892L9.47846 23.0308C9.75766 23.0793 10.0369 23.1321 10.3281 23.1806C10.0489 23.1524 9.75766 23.1118 9.47846 23.0713L8.62913 22.95L6.92993 22.6993C6.78833 22.679 6.65073 22.6505 6.50913 22.6305L6.08033 22.5812C5.80113 22.5529 5.50993 22.5124 5.23073 22.4798C4.66033 22.4113 4.08993 22.3382 3.51953 22.2494L3.5198 22.2502ZM10.1299 23.7014C10.1299 23.7014 7.96166 24.2518 7.2294 24.4622C6.5094 24.6604 4.32886 25.3238 4.32886 25.3238L10.1297 23.7017L10.1299 23.7014Z" fill="#CFB66C"/>
<path fill-rule="evenodd" clip-rule="evenodd" d="M10.1293 23.7014C9.64793 23.843 9.16926 23.9806 8.68099 24.1102L7.23273 24.4985C6.75139 24.6401 6.27273 24.7777 5.79273 24.9193L5.07273 25.1174C4.83406 25.1862 4.59139 25.2468 4.34473 25.3158C4.58313 25.2358 4.82606 25.1539 5.06473 25.0851L5.78473 24.8547C6.26606 24.7049 6.74473 24.5633 7.22473 24.4137C7.71406 24.2923 8.19566 24.1628 8.68499 24.0454C9.15006 23.9281 9.63966 23.811 10.1293 23.7017V23.7014ZM4.63193 26.6588C4.87033 26.5697 7.62126 25.2875 8.26046 24.9881C8.58046 24.8382 9.51059 24.5081 9.51059 24.5081L4.63193 26.6588Z" fill="#CFB66C"/>
<path fill-rule="evenodd" clip-rule="evenodd" d="M4.6321 26.6587C4.84224 26.5787 5.04064 26.4809 5.24277 26.3878L5.84144 26.1086L7.04304 25.5302C7.44304 25.3401 7.83184 25.1302 8.24437 24.9515C8.45477 24.8627 8.66517 24.7899 8.8753 24.7211L9.1953 24.6201C9.30437 24.5918 9.4057 24.5593 9.5153 24.531C9.1153 24.7211 8.69424 24.883 8.2937 25.0689C7.8937 25.2673 7.48464 25.4291 7.07184 25.607L5.85024 26.1449C5.4401 26.311 5.0401 26.4889 4.63184 26.6587H4.6321ZM4.89877 27.7787C4.89877 27.7787 7.3905 26.3185 8.2481 25.8491C8.69717 25.5985 10.1494 24.8782 10.1494 24.8782L4.89877 27.7787Z" fill="#CFB66C"/>
<path fill-rule="evenodd" clip-rule="evenodd" d="M4.89941 27.7791C5.31995 27.5202 5.74875 27.2573 6.17755 26.9903L6.81755 26.6018C7.03595 26.4725 7.24635 26.3511 7.46901 26.2218C7.68741 26.0922 7.89781 25.9629 8.12021 25.8415C8.22609 25.7762 8.33702 25.7194 8.45195 25.6717L8.79168 25.5018C9.24075 25.2834 9.68981 25.0607 10.1631 24.8706C9.73435 25.1418 9.29328 25.3725 8.85248 25.6109C8.63408 25.7322 8.41141 25.8415 8.19301 25.9629C7.97461 26.0842 7.76421 26.2138 7.54155 26.3311C7.32315 26.4605 7.11275 26.5818 6.89035 26.6991L6.23088 27.0591L4.89995 27.7791H4.89941ZM10.1298 25.1981C10.1298 25.1981 8.58048 26.3874 8.07888 26.7677C7.57728 27.1479 6.10075 28.2159 6.10075 28.2159L10.1298 25.1981Z" fill="#CFB66C"/>
<path fill-rule="evenodd" clip-rule="evenodd" d="M19.0213 34.7896L18.2285 33.2888L18.6896 31.4117L21.9784 30.1416L20.5786 27.2696L21.2704 24.3691L22.569 21.7717L26.5821 21.1408L29.5309 18.3293L35.8984 18.8107L37.1482 25.6189L34.7413 34.1909L33.3701 38.6288L27.8117 38.8392L25.2309 37.0512L22.209 35.7888L19.0213 34.7896Z" fill="#E2CC85"/>
<path fill-rule="evenodd" clip-rule="evenodd" d="M28.7705 34.7411C28.7705 34.7411 28.0017 35.0931 26.6905 35.0121C26.311 34.5025 23.6534 34.2638 23.6534 34.2638C23.6534 34.2638 23.3217 34.1627 22.735 34.4054C22.1446 34.6454 21.5862 34.6158 21.0644 34.7451C20.5425 34.8745 20.0244 34.195 19.6244 34.0534C19.2244 33.9038 18.694 33.5438 18.694 33.5438L17.574 33.4345L15.3249 32.4838L11.7518 28.9241L10.7809 30.4441L10.4814 32.3251L11.5617 34.5542L14.4702 37.2038L20.1417 38.6438L23.5033 37.6534L27.7145 35.8734L28.7705 34.7409V34.7411Z" fill="#F1D789"/>
<path fill-rule="evenodd" clip-rule="evenodd" d="M8.62093 22.1602L9.34093 19.98L10.1988 18.572L12.9615 18.3413L12.1321 20.7605L9.82253 24.8706L10.7812 28.5397L9.08226 29.389L8.56013 28.5882L8.13959 26.7517L8.11133 24.6885L8.62093 22.1602Z" fill="#F4ECB4"/>
<path fill-rule="evenodd" clip-rule="evenodd" d="M11.7193 34.5916L11.1895 33.8513C11.1895 33.8513 11.0479 33.4993 11.1289 33.1918C11.2089 32.8804 11.1975 32.8601 11.1572 32.7428C11.1169 32.6254 10.7769 32.2209 10.7972 31.8729C10.8172 31.5209 10.7689 31.4036 11.0276 31.1246C11.2985 30.8537 11.2177 30.3844 11.2177 30.3844L11.5697 30.6028L11.6497 30.4814C11.6497 30.4814 11.7791 30.5825 11.7791 30.7404C11.8073 30.522 11.69 29.5105 11.9569 29.2801C12.2239 29.0497 12.6972 30.3601 12.6972 30.3601L12.406 28.4588L11.6575 26.5092L10.3265 24.7292L10.2465 22.767V22.5972C10.2465 22.5972 9.63561 23.5358 9.46574 24.2772C9.34441 24.7868 9.63561 25.4057 9.57507 26.138C9.52627 26.8662 9.46574 26.8094 9.64361 27.098C9.82147 27.3865 10.2545 27.9798 10.0847 28.4086C9.93507 28.7769 9.42521 28.518 9.42521 28.518C9.42521 28.518 9.32414 28.8172 9.18654 28.9265C9.13801 28.7486 9.08547 28.6353 8.98841 28.5265C8.98014 28.5953 8.96014 28.6884 8.96014 28.6884C8.96014 28.6884 8.87107 28.4092 8.78201 28.0572C8.66094 27.5881 8.53134 26.9692 8.41401 26.6374C8.36547 26.8276 8.24414 27.406 8.24414 27.406L8.31294 28.2961L8.64467 29.5177L8.96467 30.3177L9.27614 31.2966L9.54681 31.9542L9.76521 32.4558L9.95534 33.5846L10.8735 34.5553L11.3631 34.774L11.7188 34.5918L11.7193 34.5916Z" fill="#F3E19D"/>
<path fill-rule="evenodd" clip-rule="evenodd" d="M9.10204 20.3802C9.10204 20.3802 8.44257 21.5002 8.2527 22.6293C8.06284 23.7584 7.8927 24.9514 8.0127 26.4885C8.13404 28.0381 8.3647 28.9885 8.55084 29.6682C8.87084 30.797 9.69964 32.3666 9.69964 32.3666L9.7279 32.3058C9.58859 32.0418 9.47741 31.7638 9.39617 31.4765C9.28684 31.0477 9.2463 30.5381 9.14524 30.3074C9.05617 30.077 8.90657 29.8786 8.83377 29.5954C8.76497 29.3245 8.75377 28.8957 8.54257 28.5762C8.4535 28.4466 8.34417 28.1069 8.3119 27.7672C8.27137 27.2573 8.33217 26.6869 8.28364 26.2178C8.19457 25.437 8.13404 24.9072 8.21484 24.4984C8.29564 24.0896 8.7167 22.929 8.97564 22.0066C9.1455 21.416 9.04417 20.9184 9.35564 20.4045C9.6671 19.8949 9.8575 19.4458 9.92604 19.1344C10.006 18.8512 9.10097 20.3802 9.10097 20.3802H9.10204Z" fill="#F2E8B0"/>
<path fill-rule="evenodd" clip-rule="evenodd" d="M12.2286 19.9312C12.2286 19.9312 11.8889 20.0325 11.727 20.2104C11.5652 20.3802 11.4964 20.5218 11.278 20.809C11.0596 21.0962 11.0473 21.3309 10.8692 21.6909C10.6913 22.0429 10.2988 22.5728 10.2502 22.7629C10.2017 22.953 10.1209 23.8429 10.0198 24.2637C9.93078 24.6845 10.1209 25.2024 10.1209 25.2024L10.3513 25.1536C10.3513 25.1536 10.3513 25.453 10.582 25.6554C10.8124 25.8536 10.8529 24.9837 10.8529 24.9837L11.7145 22.0752L13.0129 21.1933L13.1545 20.4813L12.2281 19.9312H12.2286Z" fill="#F5EEC0"/>
<path fill-rule="evenodd" clip-rule="evenodd" d="M12.8601 21.2501C12.8601 21.2501 12.2492 21.2904 11.95 21.5091C11.8286 21.5979 11.7801 21.6707 11.6508 21.78C11.4121 21.9781 11.1692 22.1603 11.0521 22.42C10.9225 22.6787 10.7809 23.0712 10.6838 23.8115C10.6433 24.1229 10.6433 24.4101 10.615 24.6611C10.5745 25.0008 10.514 25.2717 10.5462 25.4611C10.5868 25.8493 10.9873 26.0517 11.0262 26.4925L11.8556 26.072L12.6364 22.9933L14.295 21.9533L13.3564 20.9016L12.859 21.2483L12.8601 21.2501Z" fill="#E6DB9D"/>
<path fill-rule="evenodd" clip-rule="evenodd" d="M8.48464 41.9812C8.48811 41.9508 8.49157 41.9204 8.49504 41.8892C8.61611 40.8492 8.63664 40.0609 8.72544 39.5673C8.85477 38.8676 8.94384 38.6073 8.92358 38.3454C8.89531 37.9249 8.86304 37.6174 8.90358 37.2937C8.96411 36.8649 9.38491 36.3553 9.37291 36.0033C9.36464 35.7241 9.22304 35.5422 9.10171 35.3724C8.98037 35.2025 8.88331 35.0609 8.88331 35.0609C8.88331 35.0609 9.71264 34.4905 9.70464 32.1926C9.72158 32.1974 9.73787 32.2042 9.75317 32.2129L10.1617 33.3737L10.4409 33.7134L11.5129 35.7118L12.8924 37.051L14.931 38.4222L16.2094 39.8134L16.3388 43.523L14.6681 45.6913L14.3945 46.1868C12.2208 45.0955 10.2276 43.6771 8.48438 41.9809L8.48464 41.9812Z" fill="#E5CB7A"/>
<path fill-rule="evenodd" clip-rule="evenodd" d="M13.5879 45.5299C13.5879 45.5299 13.6162 45.0688 13.9964 44.7693C14.0572 44.8704 14.0975 44.9677 14.0855 45.0403C14.1543 44.9192 14.6356 44.1424 15.7239 43.94C16.8122 43.7419 17.0751 42.9491 17.0751 42.9491L19.3847 40.8496L22.0263 38.4184L25.2383 37.2896L26.7394 36.9213C26.7394 36.9213 26.7676 37.0307 26.7111 37.2733C26.99 37.2533 27.609 37.1117 28.2522 36.8851C28.5111 36.784 28.754 36.7435 28.8834 36.8771C29.0735 37.0549 29.1018 37.4757 29.1138 37.7264C29.4252 37.6576 29.7852 37.3584 30.0738 37.3867C30.5351 37.4352 30.9436 37.9773 31.413 37.9773C32.0319 37.9773 32.3108 37.5971 32.7439 37.2976C33.0028 37.1197 33.3748 36.8976 33.5852 36.7475C34.0868 36.3792 39.3943 34.7571 39.3943 34.7571L41.2551 34.8784L41.5546 36.8768L41.3946 42.1008C41.3748 42.1197 41.3551 42.1395 41.3351 42.1584L32.8743 46.5773L21.1463 48.3752C18.5192 47.946 15.984 47.074 13.6487 45.7963L13.5887 45.5296L13.5879 45.5299Z" fill="#D8C173"/>
<path fill-rule="evenodd" clip-rule="evenodd" d="M9.19629 42.6456C9.36296 42.2971 9.51282 42.0056 9.53922 41.9014C9.56002 42.1115 9.59816 42.5726 9.67496 43.0627C9.51371 42.9256 9.35416 42.7865 9.19629 42.6454V42.6456Z" fill="#F1D789"/>
<path fill-rule="evenodd" clip-rule="evenodd" d="M17.7636 47.5619L19.2804 47.1401L19.4097 47.1806C19.4097 47.1806 19.4785 47.2211 19.4785 47.3585C19.6687 47.2494 19.8305 47.2694 19.9479 47.1969C20.0084 47.3262 20.0689 47.755 20.3361 47.8075C20.6151 47.8683 20.9145 47.6862 21.218 47.4558C21.5172 47.2171 21.858 46.9177 22.1159 46.7963C22.2105 46.9703 22.2943 47.1499 22.3668 47.3342C22.7065 47.0633 23.2972 45.963 24.1385 45.983C24.3817 45.4083 24.7879 44.9175 25.3071 44.5713C26.0879 44.0414 26.5772 44.0009 27.1881 44.0494C27.4308 43.7342 27.7298 43.4668 28.07 43.2606C28.1711 43.3011 28.4503 43.471 28.7983 43.3091C29.1503 43.1475 29.5465 42.5203 30.0684 42.4395C30.3496 42.4008 30.6355 42.4609 30.8775 42.6094C30.8775 42.6094 32.3975 41.1003 33.4463 40.5987C33.4057 40.4774 33.3249 40.0203 34.5545 39.0089C34.6233 39.0697 34.5748 39.2395 34.6233 39.2489C34.6433 39.2489 34.9433 39.1195 35.3231 38.8281C35.7924 38.4763 36.3545 38.1081 36.6943 38.007C37.3343 37.8169 38.0132 38.2051 38.0132 38.2051C38.0709 38.1646 38.1353 38.1345 38.2033 38.1161C38.3649 38.0878 38.4823 38.0675 38.5713 38.0361C38.5633 38.2465 38.6807 38.6065 38.5713 38.9179C38.698 38.9892 38.8321 39.0461 38.9713 39.0878C38.9028 39.2374 38.7529 39.6177 38.5023 39.7998C38.7124 39.9009 38.7407 40.0182 39.0401 40.1198C38.9188 40.2897 38.7201 40.5811 38.6316 40.7598C38.5425 40.9499 38.2228 41.7387 38.0812 42.0379C37.9316 42.3374 37.7295 42.8875 37.6321 42.9979C37.5348 43.1083 37.1831 43.5763 36.9121 43.8067C37.1521 43.7177 38.134 43.4185 38.5505 43.3051C38.4265 43.487 37.798 44.4195 37.1937 45.3163C34.3005 47.0505 31.0709 48.148 27.7202 48.5359C24.3695 48.9238 20.9746 48.5932 17.7617 47.5659L17.7636 47.5619Z" fill="#E0CD81"/>
<path fill-rule="evenodd" clip-rule="evenodd" d="M12.9603 21.1408C12.9603 21.1408 12.6086 21.1408 12.5398 21.1893C12.471 21.2379 12.8918 21.3392 13.0211 21.3877C13.1504 21.4363 13.4296 21.6587 13.5024 21.8368C13.5712 22.0067 16.0307 22.9976 16.0307 22.9976L17.7702 22.9085L18.3699 22.08L17.2291 21.0808L18.0291 18.7224L16.9694 18.8923L14.4208 20.4123L13.1424 20.9019L12.9603 21.1408Z" fill="#DFC57C"/>
<path fill-rule="evenodd" clip-rule="evenodd" d="M16.7797 21.9216C16.8049 21.9623 16.8403 21.9957 16.8824 22.0184C16.9246 22.0411 16.9719 22.0524 17.0197 22.051C17.3797 22.051 17.7112 22.14 17.8488 22.3219C18.0795 22.6134 18.7187 23.5438 18.7187 23.5438L20.2477 24.0939L20.3464 22.2934L18.6757 21.1326L16.7744 21.8323V21.9214H16.7787L16.7797 21.9216Z" fill="#E5CC7C"/>
<path fill-rule="evenodd" clip-rule="evenodd" d="M16.4801 22.5892C16.4801 22.5892 16.759 22.6094 17.111 22.4798C17.463 22.3502 18.0414 22.0713 18.2924 22.1806C18.6441 22.3302 18.5713 22.7996 18.9518 23.2206C19.1822 23.4796 19.603 23.4716 19.8417 23.7508C20.0804 24.03 20.9014 23.9004 20.9014 23.9004L21.2129 25.5804L19.963 27.1825L19.5542 29.1726H17.8641L16.3201 28.5601L15.5596 26.7201L15.9398 24.8593L16.4801 22.5892Z" fill="#D2C281"/>
<path fill-rule="evenodd" clip-rule="evenodd" d="M19.7493 22.6699C19.7913 22.6828 19.8348 22.6896 19.8787 22.6901C19.8301 22.7307 19.7288 22.8195 19.7693 23.0501C19.8099 23.2808 19.9392 23.572 19.8301 23.7499C19.9172 23.8451 19.9821 23.9583 20.0203 24.0816C20.0891 24.28 20.1093 24.4619 20.5581 24.4904C20.4934 24.5303 20.4337 24.5778 20.3803 24.632C20.3803 24.632 20.6917 24.9029 20.8496 25.1536C21.0112 25.1467 21.44 25.0133 21.44 25.0133L21.5291 25.0741L21.7192 24.9941C21.7192 24.9941 21.5413 24.9253 21.6707 24.4925C21.792 24.1123 21.9013 24.1325 21.9107 24.1043C21.92 24.076 21.9997 23.6755 21.9997 23.5136C22.0603 23.3035 22.1088 22.6643 22.1088 22.6643L21.9795 21.2525L21.2515 20.8115L20.6595 20.24L20.1011 21.2917L19.7333 21.6584L19.7051 22.5685L19.7493 22.6699Z" fill="#E2C270"/>
<path fill-rule="evenodd" clip-rule="evenodd" d="M21.501 21.4889C21.501 21.4889 21.6303 21.8569 21.6791 22.1401C21.6963 22.085 21.7058 22.0279 21.7074 21.9702C21.7074 21.9702 21.8084 22.5286 21.8284 22.7593C21.869 22.751 21.9084 22.739 21.9175 22.7793C21.9266 22.8196 22.0188 23.2689 21.9975 23.5196C22.166 23.2417 22.3991 23.0086 22.677 22.8401C22.8388 22.7388 23.029 22.6297 23.2274 22.6214C23.5388 22.6134 23.7652 22.8198 24.1375 22.8198C25.0354 22.8198 25.8487 22.1604 26.4474 21.9582C26.8882 21.8084 27.2684 21.6993 27.5354 21.4564C27.665 21.3473 27.8956 21.1046 28.1058 20.7444C28.385 20.2644 28.6762 19.8465 28.9676 19.794C28.8358 19.8182 28.7016 19.8277 28.5676 19.8222C28.5676 19.8222 28.6567 19.7332 28.8076 19.6118C28.9586 19.4905 29.1394 19.3409 29.398 19.3409C29.8594 19.3409 30.0898 19.4094 30.3487 19.4094C30.6076 19.4014 30.7572 19.3409 30.7572 19.3409C30.7572 19.3409 31.0284 19.531 31.6391 19.531C32.25 19.539 32.6586 19.5916 32.9783 19.6201C33.298 19.6486 34.3698 19.531 34.6772 19.5401C34.8777 19.5478 35.0745 19.596 35.2559 19.6817L34.2647 16.8017L30.7042 13.6897L28.5844 15.1905L25.3236 18.451L22.1684 19.6201L21.509 20.3604V21.4889H21.501Z" fill="#CCB360"/>
<path fill-rule="evenodd" clip-rule="evenodd" d="M28.5801 19.838C28.5801 19.838 28.6692 19.7492 28.8185 19.6279C28.9678 19.5066 29.1505 19.3567 29.4092 19.3567C29.8702 19.3567 30.1009 19.4255 30.3598 19.4255C30.6188 19.4175 30.7684 19.3567 30.7684 19.3567C30.7684 19.3567 31.0398 19.5466 31.6502 19.5466C32.2612 19.5546 32.6697 19.6071 32.9894 19.6354C33.3092 19.6636 34.3809 19.5466 34.6884 19.5554C34.8888 19.5629 35.0855 19.6111 35.2668 19.697L34.8177 18.3983L34.2961 17.4074L32.8073 15.777C32.8073 15.777 31.0206 14.7252 31.007 14.7172C30.999 14.7092 30.3881 14.5474 30.3881 14.5474L28.77 15.5263L27.3017 19.325L27.2734 20.125L28.2238 20.574C28.4625 20.174 28.7257 19.854 28.9724 19.8135C28.7497 19.8378 28.5798 19.8378 28.5798 19.8378L28.5801 19.838Z" fill="#D5B457"/>
<path fill-rule="evenodd" clip-rule="evenodd" d="M28.5597 20.1093C28.4181 20.1173 28.3011 20.089 28.2685 19.9879C28.1472 19.6482 28.0501 19.5997 27.9485 19.5997C27.8469 19.5997 27.7099 19.8181 27.6285 19.8381C27.5472 19.8581 27.4507 19.5874 27.4507 19.5874L27.3616 19.5469C27.3616 19.5469 26.8397 19.8866 26.4717 20.2871C26.1037 20.6877 25.5008 21.3674 25.2299 21.4885C24.9589 21.6095 24.0283 21.6503 23.7099 21.7191C23.3915 21.7879 23.0384 22.0186 22.9899 22.0711C22.9413 22.1237 23.1317 22.1802 23.16 22.2327C23.1883 22.2813 22.8483 22.261 22.82 22.3127C22.8 22.3533 22.9 22.5837 22.9496 22.701C23.0364 22.6579 23.1316 22.6344 23.2285 22.6322C23.54 22.6242 23.7667 22.8306 24.1387 22.8306C25.0368 22.8306 25.8499 22.1711 26.4485 21.9687C26.8896 21.8191 27.2699 21.7098 27.5368 21.4671C27.6661 21.3581 27.8968 21.1151 28.1072 20.7551C28.2608 20.5085 28.4107 20.2778 28.5605 20.1079L28.5597 20.1093Z" fill="#D2B257"/>
<path fill-rule="evenodd" clip-rule="evenodd" d="M15.6799 40.1297C15.6799 40.1297 15.5999 39.8303 14.8585 39.0577C14.6481 38.8393 14.5188 38.6577 14.3772 38.5279C14.0252 38.1959 13.8188 38.1071 13.5681 37.9169C13.018 37.5084 12.4193 37.5084 11.9583 37.0068C11.4972 36.5052 10.9599 35.5468 10.5865 34.5673C10.2185 33.5884 10.1172 33.2769 10.1172 33.2487C10.1172 33.2204 10.2185 33.0303 10.3479 33.0585C10.4772 33.0868 10.4772 33.3375 10.5097 33.3983C10.5742 33.4975 10.6472 33.5908 10.7281 33.6772C10.9183 33.8959 11.1892 34.1572 11.3268 34.5471C11.2985 34.2153 11.1852 33.8473 11.1852 33.8473C11.1852 33.8473 11.8972 34.2964 12.5039 34.7655C13.1148 35.2348 13.3655 35.3967 13.5439 35.6959C13.7223 35.9951 14.1425 36.7841 14.3439 37.0148C14.5452 37.2455 17.3039 38.1151 17.3039 38.1151L18.6161 39.0935L19.2676 40.5215L18.7577 41.3215L17.7788 41.5319L16.1889 40.8199L15.6799 40.1295V40.1297Z" fill="#D2B159"/>
<path fill-rule="evenodd" clip-rule="evenodd" d="M12.1484 35.2104C12.1484 35.2104 12.4802 35.7403 13.2892 36.2419C14.0175 36.683 15.1703 37.0835 16.198 37.3222C16.7884 37.4638 17.3791 37.5728 17.909 37.5811C19.337 37.6011 20.3199 37.1928 21.5378 37.0592C22.1972 36.9904 23.0063 36.9379 23.8476 36.7392C24.9276 36.4803 25.5668 36.1888 26.4367 35.7792C27.0676 35.488 27.6463 35.2696 28.1154 34.9904C28.7748 34.6022 29.2562 34.1694 29.8146 34.04C29.7458 34.2302 29.673 34.5699 29.1228 34.9219C29.414 34.9136 29.8146 34.8936 29.8146 34.8936C29.8146 34.8936 29.4263 35.124 28.7426 35.6419C28.3218 35.9619 27.7636 36.5035 27.1932 36.8635C26.825 37.0942 26.4244 37.2635 26.1615 37.4016C25.5215 37.7536 25.2634 37.9315 24.8428 38.3616C24.9924 38.3536 25.0047 38.3616 25.0047 38.3616C25.0047 38.3616 24.4746 38.4304 24.0946 38.6326C24.0146 38.6326 23.8759 38.6043 23.6332 38.6731C23.4431 38.7336 23.1922 38.8715 22.9335 38.944C22.5652 39.0534 22.4442 39.0048 22.4442 39.0048L22.5047 39.1262C22.5047 39.1262 22.0247 39.1179 21.8647 39.1342C21.893 39.1422 21.885 39.1544 21.885 39.1544C21.8569 39.1592 21.8298 39.1687 21.805 39.1827C21.728 39.2326 21.6433 39.2694 21.5543 39.2918C21.5058 39.2998 21.4652 39.2998 21.4044 39.312C21.4247 39.3606 21.5826 39.632 21.6554 39.792C21.5948 39.8326 20.6844 40.5203 20.6844 40.5203C20.7127 40.5647 20.7358 40.6122 20.7532 40.6619C20.7815 40.7507 20.7938 40.8803 20.822 40.9408C20.8906 41.0622 20.9311 41.0824 20.9311 41.0824C20.9311 41.0824 20.822 41.1027 20.6316 41.1512C20.47 41.1918 20.2716 41.2603 19.9916 41.3008C19.9057 41.312 19.8193 41.3188 19.7327 41.3211C19.7732 41.4102 19.9511 41.7499 19.6234 42.1422C19.2956 42.5344 19.1946 42.5915 19.0935 42.8422C19.0426 42.8037 18.9885 42.7698 18.9316 42.7408C18.8226 42.6923 18.6727 42.6198 18.6202 42.5224C18.5895 42.6521 18.549 42.7793 18.4988 42.9027C18.3978 43.1736 18.2482 43.4408 18.2199 43.643C18.1106 43.5216 17.9084 43.283 17.6292 43.3315C17.35 43.38 17.1276 43.7603 17.0791 43.8696C17.0791 43.8008 17.0306 43.7483 17.0186 43.8291C17.0103 43.9182 16.8567 44.8483 15.9991 45.6008C15.9911 45.4107 15.9911 44.9899 15.9708 44.8526C15.8908 44.9326 15.793 45.0507 15.2103 45.3016C14.6399 45.5523 14.7303 45.8032 14.7303 45.8032C14.7303 45.8032 14.6818 45.4032 14.9892 44.9819C15.3007 44.5614 15.4908 44.363 15.4908 44.3307C15.4858 44.2978 15.4718 44.267 15.4503 44.2416C15.4098 44.2011 15.329 44.1526 15.329 44.1203C15.3775 44.1003 15.8588 43.8696 15.8306 43.392C15.8023 42.9635 15.6204 42.7408 15.4908 42.5832C15.4708 42.563 15.6812 42.4134 15.6527 42.3648C15.6324 42.3366 15.3738 42.1462 15.3412 42.0448C15.3489 41.9844 15.3625 41.9248 15.3818 41.867C15.41 41.7779 15.4303 41.7171 15.4223 41.6566C15.402 41.5555 15.2927 41.2763 15.2604 41.248C15.2887 41.256 15.4908 41.248 15.4908 41.248C15.4908 41.248 15.3292 40.9891 15.3007 40.8678C15.2722 40.7464 15.2116 40.4267 15.1794 40.3662C15.2482 40.3742 15.418 40.3862 15.418 40.3662C15.4263 40.3054 15.2684 40.2043 15.338 40.1262C15.3866 40.1342 15.4796 40.1747 15.5684 40.288C15.5199 40.1584 15.4391 39.9078 15.269 39.8067C15.349 39.7784 15.621 39.7054 15.8596 39.847C16.0983 39.9886 16.1796 40.1867 16.1796 40.1867C16.1796 40.1867 16.3212 40.296 16.5399 40.4579C16.7906 40.656 17.11 40.9379 17.6199 41.1374C17.7292 41.1982 18.0082 41.1982 18.2106 41.1576C18.2987 41.1366 18.3832 41.1026 18.4612 41.0566C18.4894 41.04 18.5193 41.0264 18.5503 41.016C18.5068 40.9288 18.4568 40.8449 18.4007 40.7651C18.4695 40.7651 18.5503 40.7734 18.5503 40.7734C18.5503 40.7734 18.5988 40.664 18.3804 40.4534C18.429 40.4048 18.4898 40.3734 18.4898 40.2915C18.421 40.2835 18.2996 40.1824 18.2714 40.1419C18.3116 40.1136 18.3724 40.0206 18.4412 39.9923C18.3804 39.9438 18.2308 39.7414 18.162 39.7214C18.2278 39.697 18.2914 39.6672 18.3522 39.6323C18.3522 39.6323 18.0124 39.5432 17.9031 39.4704C17.7938 39.3904 17.6322 39.252 17.5351 39.2115C17.4338 39.171 17.2559 39.151 17.1831 39.0699C17.2516 39.0902 17.361 39.0699 17.442 39.0699C17.5026 39.0699 17.5311 39.0779 17.5511 39.0779C17.5431 39.0496 17.5431 38.9888 17.701 38.9688C17.7769 38.9574 17.8506 38.9342 17.9194 38.9C17.9194 38.9 17.7695 38.892 17.5994 38.7302C17.4292 38.5683 17.2879 38.439 17.1908 38.4187C17.0898 38.3984 16.8996 38.4875 16.7823 38.4792C16.6204 38.4592 16.5516 38.3782 16.5516 38.3782C16.5516 38.3782 16.0138 38.4267 14.8204 37.6987C13.7887 37.0675 13.3396 36.5094 13.3396 36.5094C13.2431 36.4743 13.1498 36.431 13.0607 36.3798C12.6724 36.1776 12.1343 35.7568 12.1506 35.2064L12.1484 35.2104Z" fill="#C2A44D"/>
<path fill-rule="evenodd" clip-rule="evenodd" d="M27.0302 10.9303C27.1238 10.9607 27.2069 11.0168 27.2702 11.0922C27.4603 11.3106 27.5816 11.7231 27.1488 12.1642C27.3187 12.2247 27.3888 12.2442 27.5371 12.2247C27.3875 12.4029 27.0478 12.7831 27.0275 13.1149C27.0072 13.3858 27.1771 13.4669 27.1771 13.4669C27.1771 13.4669 26.9182 13.7661 26.9062 14.2669C27.0285 14.129 27.1623 14.0018 27.3062 13.8866C27.6056 13.6479 28.0182 13.377 28.2974 13.2071C28.2936 13.2783 28.3032 13.3496 28.3256 13.4173C28.3256 13.4173 28.8472 12.9885 29.2856 13.1789C29.4838 13.2679 29.3947 13.5469 29.3947 13.5469C29.3947 13.5469 29.6659 13.4458 29.856 13.6359C30.0462 13.8261 30.315 14.3165 30.4528 14.5066C30.5134 14.5957 30.6712 14.7655 30.8328 15.0285C31.0536 15.3966 31.238 15.7854 31.3832 16.1893C31.3912 15.9789 31.4438 15.6514 32.0427 15.8575C32.6414 16.0679 33.3208 16.509 33.8912 17.3775C34.4616 18.2461 34.603 19.2266 34.8902 19.5999C35.1814 19.9599 35.4808 20.5586 35.5011 20.8095C35.5214 21.0605 35.412 21.8693 36.0107 24.0578C36.1806 23.3783 36.4395 21.8693 36.4395 21.8693L36.5811 20.5383L36.743 16.4202L32.4427 12.8477L29.0811 10.4082L26.8926 10.6186L27.0299 10.9301L27.0302 10.9303Z" fill="#CAA13E"/>
<path fill-rule="evenodd" clip-rule="evenodd" d="M35.0207 17.059C35.0207 17.059 34.9599 16.659 33.9487 15.979C32.9373 15.3076 32.1485 15.3076 31.4205 14.7372C30.8621 14.2881 30.2797 13.2564 29.9005 12.9166C29.5322 12.5809 29.4717 11.61 29.4717 11.61L30.7135 10.57L32.5605 7.90035L34.1218 6.18115L34.8701 7.22115L35.9101 8.44275L36.4885 10.8942L36.6989 14.4825L35.0189 17.0593L35.0207 17.059Z" fill="#B59544"/>
<path fill-rule="evenodd" clip-rule="evenodd" d="M36.2704 21.36C36.301 20.8158 36.2338 20.2705 36.072 19.7501C35.8053 18.9208 35.2226 17.4482 34.952 16.8968C34.8426 16.2858 34.9237 16.2373 35.041 16.1685C35.1584 16.0997 35.5994 15.8485 35.841 14.9672C36.0826 14.0858 36.8322 14.057 36.8322 14.057L37.2933 13.7173L37.9933 15.4688L38.604 17.0506L38.7941 18.2602L38.9357 19.2917L38.604 21.4722L36.9658 22.9528L36.2701 21.36H36.2704Z" fill="#C89D3A"/>
<path fill-rule="evenodd" clip-rule="evenodd" d="M13.4102 45.6638V45.619C13.4442 45.5977 13.4743 45.5707 13.499 45.539C13.5272 45.4985 13.5478 45.45 13.5678 45.438C13.6083 45.4177 13.7984 45.358 13.8995 45.3772C14.0006 45.3964 14.2678 45.5065 14.4094 45.4985C14.7006 45.4905 15.0403 45.2678 15.5784 45.3692C16.3875 45.5188 16.5776 46.0689 17.047 46.3804C17.367 46.599 17.6982 46.5017 17.7467 46.5017H17.8558C17.876 46.5017 18.0256 46.3318 18.1067 46.3401C18.2686 46.3481 18.2846 46.4817 18.3856 46.4897C18.6243 46.518 19.0856 46.3684 19.3163 46.4292C19.3847 46.4506 19.4469 46.4882 19.4976 46.5389C19.5483 46.5895 19.586 46.6517 19.6075 46.7201C19.656 46.8697 19.6155 47.0598 19.4982 47.1692C19.2475 47.3996 19.0088 47.6182 18.9603 47.8092C19.022 47.8562 19.0813 47.9064 19.1379 47.9596C17.1363 47.4496 15.2106 46.6785 13.4102 45.6662V45.6638Z" fill="#CEB052"/>
<path fill-rule="evenodd" clip-rule="evenodd" d="M34.9512 37.581C34.9512 37.581 35.5821 36.7397 35.8008 36.3229C36.0192 35.8933 35.109 30.4533 35.109 30.4533L36.9376 24.4623L36.8888 22.5125C36.8888 22.5125 36.9778 20.7122 37.1882 19.9314C37.4392 20.3805 38.22 20.9226 38.3898 21.2098C38.4698 20.6594 38.7416 19.4986 38.7013 18.2607C38.8509 18.4911 39.2109 20.8093 39.2109 20.8093L39.5709 22.3706L40.0402 24.0293L40.5621 25.781L40.8736 26.9906L41.0514 27.2818L41.2013 27.7914L41.3429 28.3418L41.7514 29.6322L41.9914 30.6919L42.1816 32.6135C42.2229 32.7607 42.2527 32.9108 42.2706 33.0626C42.2786 33.273 42.2424 33.3943 42.2424 33.4309C42.2424 33.4674 42.3112 33.8919 42.2829 34.2117C42.2424 34.5317 42.2424 34.7821 41.9914 35.0117C41.7405 35.2413 41.5829 36.6135 41.5829 36.6135L41.1338 36.3143C41.1338 36.3143 41.2229 35.9055 41.0125 35.5335C40.8021 35.1615 40.3936 35.0845 40.1629 35.1453C39.9325 35.1938 39.4714 35.2663 39.3216 35.3959C39.18 35.5253 38.8322 35.9258 38.5125 36.1079C38.1125 36.3479 37.4608 36.3669 37.113 36.4477C36.761 36.5277 36.3728 36.7677 35.964 37.0463C35.6434 37.2539 35.305 37.4323 34.9528 37.5797L34.9512 37.581Z" fill="#CCA847"/>
<path fill-rule="evenodd" clip-rule="evenodd" d="M34.9512 46.4199C34.9512 46.4199 34.9778 46.4372 35.0293 46.4655C37.9033 45.119 40.4784 43.2103 42.6026 40.8522C42.5794 40.0335 42.5493 39.1943 42.5162 38.8834C42.4477 38.2239 42.4962 37.5524 42.476 37.1642C42.4557 36.7759 42.2373 35.194 42.1362 34.7855C42.0269 34.377 41.8162 34.1746 41.7842 34.1746C41.756 34.1828 41.5858 34.9434 41.5858 35.1346C41.5858 35.3258 41.5453 35.786 41.5453 35.9034C41.517 35.8951 41.505 35.8234 41.505 35.794C41.4645 35.8951 41.416 36.0732 41.3957 36.0935C41.3754 36.1138 41.424 35.9236 41.3957 35.8831C41.3674 35.8426 41.3157 35.8628 41.3269 35.7618C41.3317 35.7018 41.3411 35.6424 41.3552 35.5839C41.3552 35.5839 41.2338 35.7618 41.145 36.2148C41.056 36.6639 41.056 36.6762 41.0237 36.7164C40.9954 36.7652 40.8336 36.9268 40.8253 36.9876C40.8173 37.0967 40.9752 37.206 40.9872 37.2666C40.9952 37.3679 40.8456 37.837 40.797 38.0666C40.7485 38.2962 40.7688 38.746 40.717 38.9767C40.6765 39.1871 40.637 39.3084 40.4986 39.3972C40.5997 39.4175 40.6968 39.4458 40.6968 39.4458C40.6968 39.4458 40.8384 40.0444 40.4784 40.5543C40.349 40.7322 40.3168 40.8132 40.1792 40.9751C39.908 41.2743 39.6976 41.6151 39.6773 41.8367C39.6633 41.7713 39.6539 41.705 39.649 41.6383C39.649 41.6383 39.2285 42.1279 39.0504 42.4071C38.82 42.7671 38.5002 42.7468 38.4104 42.8359C38.3205 42.925 38.301 43.0866 38.3304 43.2162C38.2504 43.2362 38.1 43.2647 37.9986 43.5762C37.9501 43.7378 37.8288 43.8962 37.6386 44.005C37.4485 44.1138 37.2178 44.1466 37.1005 44.1748C37.2016 44.2031 37.2421 44.2031 37.2906 44.2354C37.2301 44.3364 36.9509 44.4943 36.6394 44.6967C36.328 44.8868 36.1781 45.1658 36.1013 45.3479C36.0213 45.5178 35.9032 45.6271 35.713 45.6474C35.793 45.6959 35.9114 45.809 35.972 45.8455C35.8829 45.8658 35.732 45.8658 35.4624 46.0964C35.1792 46.3311 35.0821 46.3999 34.9525 46.4202L34.9512 46.4199Z" fill="#C39D3C"/>
<path fill-rule="evenodd" clip-rule="evenodd" d="M29.3226 48.2947C29.4775 48.1861 29.6453 48.0971 29.8221 48.0299C30.453 47.7792 31.1205 47.7307 31.3834 47.6499C31.6344 47.5699 31.8325 47.4595 32.144 47.3989C32.1357 47.4699 32.1288 47.5365 32.1213 47.5995C31.203 47.8881 30.2679 48.1203 29.3213 48.2947H29.3226Z" fill="#D2BA6B"/>
<path fill-rule="evenodd" clip-rule="evenodd" d="M40.9598 31.6992C40.9598 31.6992 40.8305 32.3989 40.5998 32.84C40.3691 33.281 40.1198 33.8917 40.1198 33.8917C40.1213 33.7541 40.1376 33.6171 40.1683 33.4829C39.8771 33.6528 39.1691 34.0616 38.9683 34.2434C38.7782 34.4133 38.4585 34.7128 38.3777 34.8544C38.5678 34.2963 38.7659 33.7947 38.7985 33.564C38.5073 33.7744 37.1478 34.8949 36.4401 35.6352L34.2353 37.4192C33.9808 37.5564 33.7188 37.6791 33.4505 37.7866C33.0705 37.9482 32.6214 38.0858 32.2897 38.2154C32.3787 37.9768 32.5201 37.7661 32.7185 37.564C32.9289 37.3659 33.5598 36.6821 33.6569 36.364C33.7459 36.0322 33.7662 35.8341 33.6489 35.5549C33.5395 35.5832 33.2889 35.5954 33.119 35.644C32.9491 35.6925 32.767 35.8744 32.767 35.8744C32.767 35.8744 32.8963 35.1341 33.1755 34.4344C32.9651 34.4424 32.6051 34.5029 32.6051 34.5029C32.6051 34.5029 33.1067 33.6616 33.9651 33.0752C33.7022 33.1311 33.445 33.2109 33.1966 33.3136C32.695 33.524 32.1449 33.8354 31.7363 34.0053C31.9667 33.6853 33.5849 31.376 34.5478 29.2237C35.5078 27.0757 35.8665 26.5256 36.0769 25.3728C36.1859 24.8024 36.1569 23.9594 36.1859 23.2045C36.2142 22.456 36.3073 21.7845 36.2467 21.3354C36.4974 21.6469 37.4361 22.5248 37.4683 24.4869C37.4966 26.4488 36.5705 29.0986 35.5873 30.5264C35.8273 30.5952 36.4491 30.6762 37.0881 29.5664C37.727 28.4565 37.7193 28.1466 37.9499 27.6853C37.9782 27.916 37.9699 27.9968 37.9699 27.9968C37.9699 27.9968 38.9006 26.8682 39.3414 25.4482C39.4305 26.0592 39.6934 26.5973 39.2806 27.7179C38.9126 28.7291 38.4313 28.976 38.4313 28.976C38.4313 28.976 38.6699 28.9354 39.0217 28.725C39.0825 28.8746 39.0705 29.045 39.1715 29.1053C39.2726 29.1656 39.4102 29.2672 39.4305 29.3643C39.5395 29.2024 39.7094 28.996 39.7622 28.8424C39.7217 29.1624 39.6934 30.5616 39.8422 31.2736C40.1539 31.2453 40.4734 31.225 40.6918 30.6626C40.5422 31.213 40.5422 31.5445 40.6433 32.0138C40.8091 31.9008 40.9587 31.6984 40.9587 31.6984L40.9598 31.6992Z" fill="#C0993A"/>
<path fill-rule="evenodd" clip-rule="evenodd" d="M30.4491 9.40132C30.4491 9.40132 30.1377 9.53065 29.6078 9.53065C29.1467 9.53065 29.2761 9.35278 28.5561 9.35278C27.4478 9.35278 23.5763 9.99278 22.8966 9.98372C22.4555 9.97572 24.3851 10.1738 24.3851 10.1738L29.3166 10.2426L30.3075 10.1626L30.6758 9.41332L30.4491 9.40132Z" fill="#A88F33"/>
<path fill-rule="evenodd" clip-rule="evenodd" d="M17.6619 19.0413C17.6619 19.0413 17.0307 19.5226 16.7638 19.8909C16.4968 20.2592 16.3552 20.5016 16.0518 20.801C16.123 20.8038 16.1942 20.7942 16.2622 20.7728C16.2622 20.7728 16.2622 20.8528 16.2136 20.8738C16.2556 20.8691 16.298 20.8739 16.3379 20.8877C16.3778 20.9016 16.414 20.9242 16.444 20.9538C16.355 21.0024 16.1123 21.2453 16.3024 21.5325C16.444 21.7509 16.7435 21.7709 16.7435 21.7709C16.7435 21.7709 16.6747 21.9693 16.9619 21.949C17.5808 21.9208 18.2726 21.6496 18.592 21.7184C18.912 21.7984 19.0939 21.8277 19.3203 22.2202C19.5603 22.6085 19.7694 22.6693 19.7694 22.6693C19.7694 22.6693 19.911 22.309 19.8787 21.7712C19.9948 21.4812 20.0591 21.1732 20.0688 20.861L19.8584 19.3117L18.9403 18.1506L17.751 18.8101L17.6619 19.0405V19.0413Z" fill="#E3C571"/>
<path fill-rule="evenodd" clip-rule="evenodd" d="M18.79 18.8107C18.79 18.8107 18.8791 19.021 19.2514 19.041C19.2108 19.1301 19.2108 19.1424 19.2231 19.2109C19.2311 19.2797 19.2431 19.3808 19.2431 19.3808C19.2841 19.361 19.3211 19.3338 19.3524 19.3008C19.3727 19.3899 19.3322 19.5312 19.3524 19.6325C19.3649 19.6941 19.3853 19.7539 19.413 19.8104C19.4189 19.7965 19.4256 19.7831 19.4332 19.7701C19.4412 19.7499 19.5132 19.9885 19.7124 20.1701C19.7123 20.1422 19.7191 20.1147 19.7324 20.0901C19.7355 20.1408 19.7523 20.1898 19.781 20.2317C19.7661 20.2246 19.7525 20.2151 19.7407 20.2035C19.7407 20.2035 19.7607 20.8434 19.87 21.1744C19.8883 21.153 19.9046 21.13 19.9186 21.1056C19.9186 21.0856 19.9106 21.2837 19.8903 21.4256C19.862 21.5672 19.8823 21.7653 19.8823 21.7653C19.9552 21.7079 20.0354 21.6603 20.1207 21.6237C20.242 21.5749 20.4407 21.4253 20.5618 21.0936C20.632 20.9057 20.6862 20.7122 20.7236 20.5152C20.7628 20.5905 20.7897 20.6715 20.8036 20.7552C20.8119 20.8562 21.002 20.8037 21.002 20.8037L21.0426 20.3626L21.2826 19.3635L21.501 18.7445L22.5527 17.1064L24.453 15.6429L26.1116 16.0232L27.5111 14.1219L25.1002 12.6736L22.8186 12.9123L20.7479 15.7803L19.0895 18.3816L18.79 18.8104V18.8107Z" fill="#D8B65B"/>
<path fill-rule="evenodd" clip-rule="evenodd" d="M30.7401 14.6603C30.7401 14.6603 30.5985 14.6885 30.19 14.9003C29.7815 15.112 29.4983 15.1792 29.3404 15.4907C29.1825 15.8021 29.1705 16.0491 29.1705 16.0491C29.1705 16.0491 29.4497 15.9277 29.6116 15.8872C29.7815 15.8469 29.9716 15.8589 29.9513 15.9277C29.9319 15.9749 29.9049 16.0186 29.8713 16.0571C29.8713 16.0571 30.1913 16.0491 30.1828 16.2069C30.1743 16.3648 30.1223 16.5387 30.0617 16.6155C30.0009 16.6955 29.7503 16.8139 29.722 16.9069C29.6532 17.0971 29.7503 17.1051 29.7137 17.2587C29.6855 17.4085 29.5521 17.6997 29.1151 18.2093C28.666 18.7192 28.4751 19.0792 28.4751 19.0792C28.4751 19.0792 28.2567 18.6707 28.1433 18.3187C28.0633 18.3589 27.6337 18.5976 27.6337 18.5976L26.6385 15.1309L26.6585 14.9003C26.6585 14.9003 26.7476 14.7912 26.7679 14.5888C26.6183 14.5403 26.598 14.4997 26.3996 14.3099C26.2012 14.12 26.0396 13.8891 25.7081 13.7312C25.6596 13.6421 25.5988 13.5211 25.3561 13.4723C25.1135 13.4235 24.9679 13.3835 24.9679 13.3835C24.9679 13.3835 25.0972 13.3347 25.158 13.2336C25.0081 13.2539 24.8871 13.3024 24.5593 13.2944C24.2276 13.2861 24.1911 13.2741 24.0092 13.3024C23.8273 13.3307 23.6092 13.4117 23.5279 13.1325C23.4388 13.0637 23.2487 13.1245 23.0868 13.3629C22.9249 13.6013 22.8684 13.7917 22.5569 13.8848C22.535 14.0221 22.487 14.1539 22.4153 14.2731C22.3263 14.4229 22.1847 14.5725 21.9945 14.7949C21.6951 15.1469 21.7436 15.7253 21.2663 16.1664C20.7849 16.6072 21.3463 14.9445 21.3463 14.9445L22.1148 13.1045L24.3033 10.9645L27.7015 10.7341L28.0332 12.4941L29.6919 13.0645L30.7396 14.6624L30.7401 14.6603Z" fill="#D3AE4D"/>
<path fill-rule="evenodd" clip-rule="evenodd" d="M31.2788 15.0485L29.8508 12.9895L28.8516 12.2207C28.8516 12.2207 28.1396 10.9103 28.0911 10.8698C28.0505 10.8415 27.3791 10.7687 26.9503 10.7405L27.0303 10.9386C27.1238 10.969 27.207 11.0251 27.2703 11.1005C27.4604 11.3189 27.5817 11.7314 27.1489 12.1725C27.3188 12.233 27.3889 12.2525 27.5372 12.233C27.3876 12.4111 27.0479 12.7914 27.0276 13.1231C27.0073 13.3941 27.1772 13.4749 27.1772 13.4749C27.1772 13.4749 26.9182 13.7743 26.9062 14.2749C27.0285 14.137 27.1623 14.0098 27.3062 13.8946C27.6057 13.6546 28.0183 13.3847 28.2975 13.2149C28.2936 13.2862 28.3032 13.3575 28.3257 13.4253C28.3257 13.4253 28.8473 12.9965 29.2857 13.1866C29.4838 13.2757 29.3948 13.5549 29.3948 13.5549C29.3948 13.5549 29.666 13.4538 29.8561 13.6439C30.0462 13.8341 30.3172 14.3234 30.4548 14.5138C30.5153 14.6029 30.6732 14.7727 30.8348 15.0354C31.0556 15.4036 31.2399 15.7925 31.3852 16.1965C31.3932 16.0346 31.4257 15.8082 31.7052 15.8082L31.2804 15.0477L31.2788 15.0485Z" fill="#CAA13E"/>
<path fill-rule="evenodd" clip-rule="evenodd" d="M9.87109 20.8981C9.87109 20.8981 9.77002 20.6471 9.87109 20.1578C9.97216 19.6685 10.13 19.4378 10.1826 18.7178C10.2351 17.9978 10.7044 17.0997 10.7044 17.0997L12.0028 16.5093L12.9212 16.7599L13.1922 17.9898L12.0311 18.6298C12.0311 18.6298 11.9706 18.9007 11.6428 19.1191C11.3151 19.3375 10.862 19.5074 10.753 19.7301C10.6878 19.8664 10.6402 20.0105 10.6114 20.1589C10.6114 20.1589 10.2796 20.0901 10.0815 20.3085C9.87109 20.5311 9.87909 20.7293 9.87109 20.8991V20.8981Z" fill="#F4EFC8"/>
<path fill-rule="evenodd" clip-rule="evenodd" d="M12.4917 20.5705C12.4917 20.5705 12.3824 20.6393 12.3016 20.8105C12.2216 20.6811 12.0304 19.9123 12.0224 19.2206C12.0144 18.5289 11.9731 18.3574 12.1331 18.119C12.2931 17.8806 12.9205 17.6294 12.8315 17.2001C12.7424 16.7915 12.3701 16.6217 11.9131 16.739C11.5931 16.819 11.3549 17.4995 11.0232 17.8393C10.7723 18.0982 10.4731 18.0577 10.3923 18.1993C10.2829 18.3894 10.384 18.5795 10.3517 18.7009C10.3435 18.7414 10.2424 18.9598 10.0603 19.2227C9.69228 19.7526 9.06935 20.5011 8.98828 21.1726C9.01655 20.7923 8.99655 20.7843 9.09761 20.3635L9.03681 20.2625L9.43681 18.9518L9.69575 17.8718L10.2744 16.0633L11.2936 14.2147L12.2848 13.1062L13.3163 13.175L13.4376 14.7243L14.0283 17.6331L15.2701 19.1622L13.2797 20.5017L12.4909 20.5705H12.4917Z" fill="#EBCC73"/>
<path fill-rule="evenodd" clip-rule="evenodd" d="M13.1108 21.12C13.1108 21.12 12.941 21.1605 12.8802 21.1282C12.8194 21.096 12.7591 21.0594 12.7791 21.0189C12.7991 20.9784 12.9084 20.9098 12.9084 20.8773C12.9107 20.8479 12.9014 20.8188 12.8825 20.7961C12.8636 20.7735 12.8367 20.7591 12.8074 20.756C12.7143 20.744 12.686 20.8045 12.686 20.8045C12.686 20.8045 12.597 20.736 12.5244 20.7245C12.5673 20.7192 12.6105 20.7165 12.6538 20.7162C12.542 20.6656 12.4234 20.6315 12.3018 20.6152C12.4028 20.5546 12.6012 20.3765 12.7306 20.3765C12.8599 20.3765 12.941 20.3565 12.9207 20.2877C12.9004 20.2189 12.7994 20.1178 12.6903 20.0773C12.7306 20.0288 12.7591 19.956 12.662 19.7573C12.5607 19.5592 12.6012 19.4256 12.6338 19.3773C12.662 19.3165 12.7631 19.2074 12.8116 19.1386C12.8602 19.0698 12.9007 18.9768 12.9815 18.9282C13.022 18.9 13.1514 18.8482 13.281 18.7989C13.4226 18.7504 13.5399 18.6896 13.6207 18.7504C13.7098 18.8109 13.6692 18.892 13.6692 18.892C13.6692 18.892 13.9484 18.7906 14.1991 18.9202C14.45 19.0413 15.061 19.1184 15.061 19.1184L15.2799 19.5594L13.8316 20.8013L13.233 21.1008L13.1116 21.1208L13.1108 21.12Z" fill="#E5C66B"/>
<path fill-rule="evenodd" clip-rule="evenodd" d="M15.1214 19.0899C15.1214 19.0899 14.6724 19.3894 14.5713 19.4985C14.6318 19.5067 14.7329 19.5473 14.6924 19.6078C14.6438 19.6683 14.3526 19.8787 14.1908 20.0771C14.0209 20.2753 13.859 20.5262 13.8025 20.6475C13.742 20.7566 13.2806 21.0763 13.123 21.1166C13.4548 21.1166 14.1222 20.7081 14.3729 20.7081C14.3649 20.8294 14.4417 20.967 14.5833 20.979C14.7249 20.991 15.1334 21.0681 15.6836 20.7283C16.2337 20.3966 16.0518 20.1497 16.2822 19.9881C16.7233 19.6966 16.9012 19.4377 17.1438 19.2761C17.3865 19.1145 17.5121 19.0777 17.5121 19.0777C17.5121 19.0777 17.5201 18.9563 17.5921 18.9686C17.6118 18.9709 17.6305 18.9785 17.6462 18.9906C17.6619 19.0027 17.674 19.0189 17.6812 19.0374C17.6812 19.0374 18.102 18.7379 18.6412 18.6571C18.6286 18.6515 18.6185 18.6414 18.6129 18.6289C18.6129 18.6289 18.6532 18.6086 18.6614 18.5883C18.6614 18.5883 18.6897 18.5478 18.71 18.5681C18.7302 18.5883 18.7585 18.7379 18.799 18.7987C18.8881 18.7582 19.058 18.3779 19.058 18.3779L19.4668 17.2089V16.1409L19.1468 16.2017L16.7468 17.2209L15.2902 18.7299L15.1204 19.0899H15.1214Z" fill="#E6BD62"/>
<path fill-rule="evenodd" clip-rule="evenodd" d="M22.0307 13.8513C22.1605 13.8198 22.2849 13.7693 22.4 13.7014C22.3515 13.831 22.3515 13.9726 22.1411 14.2801C21.9307 14.5875 21.9227 14.6321 21.7528 14.9515C21.5829 15.2833 21.5627 15.7606 21.4008 15.9707C21.4734 15.9355 21.5512 15.9123 21.6312 15.9022C21.6312 15.9022 21.4696 16.0438 21.4008 16.1934C21.332 16.343 21.2107 16.6545 20.9115 16.8449C20.6123 17.0353 20.2317 17.1563 19.8232 17.6054C19.4144 18.0462 18.9939 18.6046 18.7832 18.8054C18.8925 18.6153 19.0421 18.235 19.0827 17.9843C19.1232 17.7337 19.0744 17.4339 19.1432 17.1025C19.212 16.771 19.212 16.5321 19.5432 15.9534C19.8744 15.3747 20.4413 13.3643 20.4413 13.3643L21.6629 12.9761L22.0312 13.8499L22.0307 13.8513Z" fill="#B6933F"/>
<path fill-rule="evenodd" clip-rule="evenodd" d="M21.149 13.1108C21.149 13.1108 20.781 13.6407 20.6799 14.11C20.5789 14.5794 20.6717 14.5388 20.6111 14.7695C20.5749 14.9102 20.5749 15.0577 20.6111 15.1983C20.7386 14.993 20.9131 14.821 21.1202 14.6964C21.4682 14.4863 21.7514 14.3364 21.9202 14.1586C22.0901 13.9684 22.2317 13.657 22.5997 13.4183C22.4501 13.398 22.2397 13.3292 22.1997 13.3383C22.3495 13.1684 22.7983 12.9095 23.2514 12.598C23.7005 12.278 23.6722 12.149 24.4005 11.8295C24.1618 11.87 24.0485 11.8092 23.8501 11.8295C23.9301 11.6596 24.2101 11.5786 24.4901 11.2996C24.7701 11.0207 24.3122 10.6079 24.3122 10.6079L22.1789 11.8983L21.1474 13.1119L21.149 13.1108Z" fill="#C49937"/>
<path fill-rule="evenodd" clip-rule="evenodd" d="M15.3604 12.148L15.4089 11.7597L16.0198 10.7808L16.659 9.06158V6.71118L16.6105 5.35198L16.7116 4.46185L16.7884 4.17891L16.8694 4.06958L17.391 4.34051L18.1113 5.31945L18.1801 7.20878L17.4801 10.1901L15.4817 12.3706L15.3604 12.148Z" fill="#DFC068"/>
<path fill-rule="evenodd" clip-rule="evenodd" d="M16.9497 3.96022C16.9497 3.96022 16.6297 3.96849 16.5615 5.29942C16.4932 6.63035 16.4601 7.33009 16.4116 7.98955C16.3631 8.64902 16.25 9.04929 16.1932 9.43782C16.1364 9.82635 16.1042 10.356 15.9223 10.6797C15.8423 10.8293 15.6713 11.2986 15.2708 11.6506C14.8217 12.0389 14.1508 12.3101 14.0492 12.3304C13.8711 12.3706 12.9689 12.4597 12.6009 12.6621C12.4716 12.7309 12.2489 12.8117 12.0023 13.0424C11.5127 13.4832 10.8615 14.272 10.3921 15.2226C9.67215 16.6426 8.95215 20.6514 8.95215 20.6514L9.11402 20.3805C9.11402 20.3805 9.13428 20.0205 9.49428 19.3893C9.84628 18.7584 9.74522 18.0504 10.2345 16.8408C10.4247 16.3797 10.6633 15.781 10.9545 15.2712C11.4159 14.4418 11.974 13.7298 12.5364 13.3416C13.4545 12.7106 14.466 12.573 14.466 12.573L15.5543 11.853C15.5543 11.853 15.7444 11.485 15.9953 11.0642C16.3471 10.4738 16.7953 9.81435 16.8932 8.85569C17.0431 7.43569 16.6828 6.50529 16.7031 5.66395C16.7233 4.82262 16.7313 4.20369 16.9015 4.05382C17.0716 3.90396 16.95 3.96076 16.95 3.96076L16.9497 3.96022Z" fill="#A88F33"/>
<path fill-rule="evenodd" clip-rule="evenodd" d="M16.9502 10.3114C16.9502 10.3114 17.4302 9.13011 17.65 8.08238C17.6905 7.87198 17.7713 7.66185 17.7916 7.49198C17.8926 6.50078 17.9209 6.09225 17.7916 5.55011C17.6905 5.15011 17.3022 4.78958 17.0998 4.51011C16.9017 4.21865 16.8086 4.11011 16.8492 4.04878C16.8897 3.98745 17.0473 3.88718 17.2009 3.89918C17.3642 3.90393 17.5248 3.94184 17.6729 4.01061C17.8211 4.07937 17.9537 4.17755 18.0628 4.29918C18.3742 4.65918 18.6209 5.88105 18.6209 5.88105L18.8804 7.49331L19.5398 9.52398L16.9508 10.313L16.9502 10.3114Z" fill="#C99E3D"/>
<path fill-rule="evenodd" clip-rule="evenodd" d="M21.4604 9.08181C21.4604 9.08181 21.3714 9.12208 21.2098 9.08181C21.2167 9.14785 21.2052 9.21451 21.1766 9.27445C21.1481 9.33439 21.1035 9.38529 21.0479 9.42154C20.878 9.35274 19.2879 9.49034 19.2879 9.49034C19.2879 9.49034 18.5476 9.36074 18.317 8.38181C18.1554 7.73034 18.4383 6.83248 18.3452 6.24181C18.2036 5.37194 18.0055 5.20181 17.9852 4.93114C17.965 4.66048 17.9447 4.59141 17.9447 4.42154C17.8556 4.40128 17.8031 4.37301 17.7143 4.37301C17.694 4.29301 17.7343 4.22314 17.6455 4.08154C17.694 4.10181 18.0258 4.14234 18.414 4.51034C18.734 4.80981 18.734 4.91888 18.7823 4.97968C18.8428 5.04021 19.3324 5.45968 19.5428 5.87781C19.7532 6.29594 20.1618 7.62928 20.2548 7.84768C20.2831 7.93674 20.3439 8.02581 20.4948 8.22794C20.7295 8.51941 21.0732 9.00128 21.4615 9.08128L21.4604 9.08181Z" fill="#B58634"/>
<path fill-rule="evenodd" clip-rule="evenodd" d="M18.8389 5C19.0839 5.39587 19.3041 5.80662 19.4981 6.22987C19.7367 6.76773 19.8783 7.2088 20.1778 7.5688C20.0159 7.09973 19.7287 6.17733 19.5589 5.8496C19.3687 5.50293 18.9805 5.1296 18.8389 5.00027V5Z" fill="#A88F33"/>
<path fill-rule="evenodd" clip-rule="evenodd" d="M16.0882 11.6507C16.0882 11.6507 15.6797 11.7517 14.9192 12.1523C14.6682 12.2816 14.4298 12.3907 14.1992 12.492C13.6 12.7629 12.9573 13.0133 12.4474 13.1515C12.488 13.2 12.508 13.22 12.508 13.22C12.508 13.22 12.508 13.4184 12.6173 13.5315C12.5568 13.5923 11.7474 14.1424 11.9864 15.9829C12.148 15.9224 12.3381 15.8413 12.3664 15.8413C12.4152 15.8496 12.4272 15.9829 12.4877 15.9829C12.5482 15.9829 12.7466 15.9029 12.957 15.6309C12.949 15.7403 12.8277 16.8405 13.4789 17.5808C13.6002 17.4392 13.9077 16.9699 13.9077 16.9699L13.9157 16.8203C13.9157 16.8203 13.944 16.2984 14.1141 15.8211C14.2842 15.3437 14.6157 14.9917 14.6157 14.9917L16.3466 12.52L16.0877 11.6504L16.0882 11.6507Z" fill="#E6C367"/>
<path fill-rule="evenodd" clip-rule="evenodd" d="M14.4701 15.28C14.3908 15.336 14.3035 15.3797 14.2112 15.4094C14.1829 15.3083 14.1424 14.9603 14.381 14.6206C14.6602 14.2118 15.2709 13.6819 15.4408 13.2606C15.5501 12.9894 15.5016 12.3099 16.4725 11.44C17.4434 10.5702 17.8234 10.271 17.8234 10.271L19.393 9.48218L21.3226 10.2427L20.364 14L19.6197 15.76L16.6597 15.2019L14.4698 15.28H14.4701Z" fill="#DCBA5A"/>
<path fill-rule="evenodd" clip-rule="evenodd" d="M15.5996 14.2597L15.9679 13.7987V13.4709C15.9679 13.4709 16.3764 13.3616 16.8172 12.9125C17.258 12.4635 17.8689 11.6019 18.4071 11.6544C18.9452 11.7152 18.9977 12.8235 19.018 13.1352C19.0383 13.4469 19.1071 14.1544 19.2161 14.5349C19.3375 14.9152 17.9055 16.3552 17.9055 16.3552L16.9329 17.0955L15.5996 14.2597Z" fill="#E9CE77"/>
<path fill-rule="evenodd" clip-rule="evenodd" d="M16.7393 18.0986C16.7393 18.0986 17.0387 17.6293 16.8193 17.5282C16.9486 17.237 17.1873 16.9296 17.1873 16.9296C17.1873 16.9296 17.3571 16.509 17.9073 15.9912C18.4574 15.4733 18.7974 15.1293 18.8865 14.7816C18.9414 14.555 18.9712 14.323 18.9755 14.0898C19.035 14.1384 19.0986 14.1817 19.1657 14.2192C19.2547 14.2597 19.6753 14.6074 19.6147 15.3074C19.5542 16.0074 19.2947 16.2986 19.2947 16.2986C19.2947 16.2986 19.0441 16.5493 18.8662 16.6789C18.6758 16.8082 18.6073 16.9578 18.2875 16.9701C18.3204 16.944 18.3573 16.9234 18.3969 16.9093C18.3969 16.9093 18.0651 16.869 17.887 17.0306C17.7089 17.1922 17.3302 17.6901 17.1401 17.84C16.9499 17.9613 16.7401 18.0989 16.7401 18.0989L16.7393 18.0986Z" fill="#CDAE50"/>
<path fill-rule="evenodd" clip-rule="evenodd" d="M30.1898 10.2303C29.7119 10.0561 29.2096 9.95787 28.7013 9.93911C27.8517 9.91085 26.6098 9.95938 25.3922 9.96738C24.0815 9.97538 22.8922 9.51831 21.2418 9.43751C20.9709 9.27565 20.2818 8.56765 18.1309 10.0684C18.2602 10.0604 19.6925 9.73671 20.1898 10.3599C20.6914 10.9788 20.5498 12.0306 20.4813 12.2812C20.3517 12.8396 19.9309 13.6527 19.7613 14.2231C19.5917 14.7935 19.6317 15.0932 19.5103 15.4932C19.389 15.8932 19.1221 16.0919 19.2797 16.553C19.4901 16.4236 19.5997 16.4236 19.9511 15.6348C20.3026 14.846 20.2303 14.2836 20.813 13.6162C21.3834 12.9447 22.333 12.0263 22.6941 11.7956C23.0551 11.565 25.9221 10.0764 28.9239 11.4964C29.6479 11.4196 30.1901 10.23 30.1901 10.23L30.1898 10.2303Z" fill="#D2A83E"/>
<path fill-rule="evenodd" clip-rule="evenodd" d="M19.341 9.68005C19.338 9.64965 19.3313 9.61973 19.321 9.59098C19.2929 9.53182 19.256 9.47725 19.2116 9.42911C19.2116 9.42911 18.4996 9.29978 18.1396 9.34005C17.5084 9.40885 16.938 10.1896 16.6711 10.5902C16.4042 10.9907 16.0724 11.6094 15.7124 11.9291C15.7164 11.898 15.7092 11.8664 15.6922 11.84C15.6922 11.84 15.7124 11.8683 15.6722 11.9088C15.6319 11.9494 15.6316 11.9694 15.6519 11.9888L15.7127 12.0494C15.7327 12.0494 16.2911 11.7984 17.0516 11.0894C17.8607 10.3491 18.4796 9.96938 18.8034 9.83925C18.976 9.76588 19.1565 9.71247 19.3412 9.68005H19.341Z" fill="#C29637"/>
<path fill-rule="evenodd" clip-rule="evenodd" d="M33.1514 6.63843C33.1514 6.63843 33.0218 6.80003 32.8599 6.97816C32.4999 7.35843 32.0306 7.78696 31.6301 8.22803C31.2501 8.64883 30.8213 8.97656 30.3397 9.52669C29.8581 10.0768 29.2997 10.6875 29.1583 10.8656C29.029 11.0438 28.9279 11.335 28.9279 11.4846C28.8591 11.436 28.7783 11.3835 28.7783 11.3835C28.8123 11.447 28.853 11.5067 28.8997 11.5616C29.0007 11.7032 29.1583 11.8816 29.2394 11.9904C29.3388 12.1289 29.4102 12.2856 29.4495 12.4515C29.4981 12.4595 29.8095 12.5203 30.1981 11.8811C30.5866 11.2419 31.0959 10.5422 31.0959 10.5422L31.905 9.34056L32.4149 8.32136L33.0549 7.18056L33.1522 6.63843H33.1514Z" fill="#AC8132"/>
<path fill-rule="evenodd" clip-rule="evenodd" d="M33.9809 5.82129C33.9809 5.82129 33.4913 6.22129 33.3011 6.46129C33.111 6.70129 32.6611 7.33116 32.6611 7.33116L32.823 7.31089L33.6443 6.58289L33.9643 6.01249L33.9806 5.82236L33.9809 5.82129Z" fill="#A88F33"/>
<path fill-rule="evenodd" clip-rule="evenodd" d="M33.8312 37.9694C33.8312 37.9694 33.8232 37.6377 34.0094 37.4395C34.1995 37.2411 34.6808 36.9499 35.1502 35.8577C35.6195 34.7654 35.6718 34.5187 35.6718 34.5187C35.6718 34.5187 34.8304 35.2387 34.3118 35.4086C34.4331 35.1577 34.5019 34.9798 34.5627 34.8502C34.4939 34.7897 34.2027 34.7209 34.1744 34.6886C34.336 34.5267 34.4251 34.1302 34.7528 33.8673C35.1736 33.5473 35.9422 32.9974 36.5395 32.5073C37.1368 32.0171 38.3112 30.8771 38.4611 30.5454C38.5502 30.6747 38.5702 30.7555 38.5702 30.7555C38.5702 30.7555 37.9798 31.5243 37.6723 32.0137C37.4011 32.4345 37.4214 32.6731 37.4214 32.6731L37.9798 32.4331C37.9798 32.4331 38.1414 33.0318 37.4094 33.9422C37.7294 33.8209 37.8584 33.8937 38.0403 33.7923C37.7408 33.9827 37.3283 34.2417 36.94 34.9534C36.5598 35.6654 36.0419 36.4947 35.1683 37.0123C34.3187 37.5585 33.8291 37.967 33.8291 37.967L33.8312 37.9694Z" fill="#A67A2E"/>
<path fill-rule="evenodd" clip-rule="evenodd" d="M31.6388 10.6515C31.6388 10.6515 31.3071 11.343 31.2585 11.8811C31.2505 12.0107 31.218 12.1118 31.218 12.2614C31.21 12.7427 31.2463 13.2808 31.138 13.5315C31.0975 13.4304 31.0772 13.3616 31.0366 13.3214C30.9761 13.4912 30.8668 14.0211 30.7777 14.2192C30.7375 14.0899 30.6484 13.6408 30.6566 13.111C30.6649 12.5811 30.6766 12.4798 30.6766 12.3707C30.6566 12.5323 30.5473 12.751 30.5068 12.8803C30.4462 12.7712 30.3774 12.6296 30.2964 12.5123C30.2478 12.5923 30.1873 12.7104 30.1348 12.7712C30.1265 12.7227 30.1065 12.5931 30.0943 12.4112C30.0863 12.2008 30.074 11.9299 30.0862 11.8731C30.1062 11.764 30.2764 11.3352 30.6364 10.9427C31.0652 10.4734 31.5062 9.57149 31.6356 9.29229C31.7649 9.01309 32.3151 7.85229 32.3151 7.85229H32.7358L32.1249 9.24376C32.1249 9.24376 31.7569 10.0043 31.5668 10.2838C31.3766 10.5632 30.9761 11.364 30.798 11.6755C30.9273 11.5056 31.0366 11.4166 31.1662 11.2547C31.2916 11.1414 31.6393 10.652 31.6393 10.652L31.6388 10.6515Z" fill="#8C6228"/>
<path fill-rule="evenodd" clip-rule="evenodd" d="M33.9886 5.76855C33.9199 5.98011 33.8112 6.17654 33.6686 6.34722C33.4177 6.64669 32.8795 7.04695 32.6169 7.36642C32.3769 7.67789 31.8969 8.52749 32.115 9.53469C32.195 9.31629 32.3457 8.88349 32.7462 8.39389C33.1467 7.90429 33.5755 7.34215 33.7862 6.90535C33.9963 6.46429 34.0246 6.11655 34.0246 6.11655L34.1046 6.01549L34.0561 5.78482L33.9873 5.76855H33.9886Z" fill="#CBA94C"/>
<path fill-rule="evenodd" clip-rule="evenodd" d="M42.181 32.601C42.181 32.601 42.0191 32.1602 41.9706 31.7596C41.922 31.3591 42.0506 31.2796 41.9018 30.8212C41.8127 30.542 41.6511 30.5812 41.6106 30.542C41.57 30.5028 41.5418 30.081 41.5498 29.8503C41.5578 29.6196 41.5418 29.3204 41.5013 29.1908C41.4407 29.1423 41.4002 29.1018 41.3111 28.8026C41.2101 28.5031 41.1615 28.3535 41.113 28.2647C41.0644 28.1759 40.9226 28.0948 40.9226 28.0058C40.9226 27.8276 41.0845 27.7348 41.0845 27.6858C41.0764 27.5847 40.9551 27.6658 40.9226 27.6372C40.8823 27.5887 41.0239 27.2975 40.9714 27.257C40.9511 27.237 40.8095 27.4068 40.773 27.3583C40.7324 27.3095 40.6839 26.8282 40.6111 26.5087C40.5426 26.1972 40.4695 25.9708 40.4615 25.8778C40.4535 25.7887 39.9031 24.2191 39.7698 23.8388C39.6623 23.5175 39.5719 23.1907 39.4988 22.8599C39.4583 22.6698 39.43 22.2812 39.4098 22.3218C39.3895 22.3623 39.4018 22.5604 39.3692 22.5524C39.341 22.5442 39.2399 21.8527 39.2076 21.7434C39.1794 21.634 39.0092 21.2634 38.9676 20.9951C38.9271 20.7239 38.8383 20.0159 38.7775 19.5346C38.7167 19.0532 38.6885 18.8551 38.6885 18.7346C38.6984 18.4398 38.6822 18.1446 38.6399 17.8527C38.5599 17.3428 38.3999 16.7239 38.2596 16.3642C37.9887 15.6844 37.2684 13.945 37.1396 13.5122C37.1396 13.4028 37.2812 13.4636 37.2812 13.4636C37.2812 13.4636 37.633 14.3455 37.8919 15.025C38.1429 15.7047 38.3815 16.3034 38.4423 16.3642C38.4908 16.4247 38.8711 17.0922 39.041 18.1844C39.2108 19.2767 39.2714 20.2839 39.3727 20.9554C39.4212 21.2754 39.4618 21.6148 39.5628 21.9546C39.6719 22.3228 39.8418 22.7031 40.0645 23.2855C40.2546 23.7751 40.3962 24.1836 40.473 24.5356C40.562 24.9847 40.5621 25.3244 40.6146 25.5471C40.6634 25.7372 40.7359 26.1172 40.906 26.6671C41.0762 27.217 41.3266 27.9252 41.4964 28.366C41.8284 29.2479 41.9764 29.9842 42.0266 30.3767C42.0708 30.7812 42.2207 32.181 42.1802 32.6015L42.181 32.601Z" fill="#A88F33"/>
<path fill-rule="evenodd" clip-rule="evenodd" d="M34.0089 5.71993L33.9887 5.76847C33.9887 5.76847 34.0492 5.78873 34.0372 5.8698C34.038 5.98071 34.0313 6.09155 34.0169 6.20153C33.9969 6.34313 33.9564 6.4522 33.9484 6.54127C33.9484 6.7314 33.9767 6.9498 33.7084 7.49193C33.6284 7.64153 33.5791 7.77086 33.5385 7.85993C33.4375 8.07833 33.4172 8.11087 33.3281 8.21193C33.4697 8.13193 33.9796 7.81193 34.2383 7.85993C34.0604 7.961 33.7892 8.1594 33.6193 8.41833C33.6599 8.42633 33.8297 8.45886 34.0993 8.41833C34.5484 8.34953 35.05 8.18766 35.4908 8.21993C35.9724 8.2482 35.7823 7.64153 35.7823 7.64153L35.2265 6.41993L34.1748 5.67993L34.0089 5.7202V5.71993Z" fill="#BE9C44"/>
<path fill-rule="evenodd" clip-rule="evenodd" d="M36.7514 14.8707C36.7514 14.8707 36.282 14.4013 36.0919 12.7907C35.9018 11.1725 35.9423 8.79066 35.9423 8.79066L35.562 7.86026C35.562 7.86026 35.482 7.24133 35.2828 7.01093C35.0836 6.78053 34.6924 6.392 34.5143 6.20186C34.3362 6.01173 34.134 5.7528 34.0127 5.71226C34.0732 5.6112 34.3444 5.0408 35.3839 5.0328C36.4234 5.0248 36.7439 5.6032 36.8524 5.8136C36.961 6.024 37.4511 6.9336 37.633 8.66693C37.8028 10.3981 37.8111 10.5277 37.7828 11.1264C37.7626 11.4581 37.6532 12.2267 37.4628 13.0477C37.289 13.7437 37.0988 14.5205 36.7508 14.8723L36.7514 14.8707Z" fill="#A17C34"/>
<path fill-rule="evenodd" clip-rule="evenodd" d="M35.28 16.2501C35.4364 16.2614 35.5927 16.2261 35.7291 16.1488C35.8787 16.1408 36.4208 16.2096 36.8374 15.6797C36.8656 15.8008 36.9387 16.1288 36.7483 16.42C36.8496 16.3186 36.9992 16.2784 37.0195 16.2501C37.0275 16.3997 37.1691 16.8608 36.5704 17.9813C36.732 17.8034 36.9222 17.8114 37.092 17.7912C37.1003 18.0016 37.2134 18.7093 36.9142 19.0898C36.716 19.3488 36.3923 19.2677 36.3923 19.2677C36.397 19.2112 36.397 19.1543 36.3923 19.0978C36.3843 18.9885 36.3438 18.8794 36.3723 18.8066C36.2159 18.7352 36.0734 18.6365 35.9515 18.5152C35.5995 18.1834 35.1424 17.6173 35.1102 17.1965C35.0696 16.7272 35.4904 16.6261 35.4904 16.6261C35.4552 16.5946 35.4251 16.5577 35.4014 16.5168C35.3811 16.4482 35.3608 16.3389 35.28 16.2501Z" fill="#8C6228"/>
<path fill-rule="evenodd" clip-rule="evenodd" d="M32.1596 11.1611C32.1596 11.1611 32.1393 11.1328 32.0303 11.2622C32.0505 11.1328 32.0708 11.0112 32.0788 10.8939C32.1304 10.7853 32.1972 10.6845 32.2772 10.5947C32.2164 10.7158 32.1759 10.8251 32.1759 10.8251C32.1759 10.8251 32.3257 10.5459 32.5441 10.376C32.6937 10.2547 32.8839 10.1982 32.9647 10.0848C33.0537 9.96349 33.0335 9.94322 33.0537 9.92296C33.0537 9.92296 33.2521 9.79362 33.5556 9.41309C33.5959 9.36456 33.6567 9.31202 33.6972 9.26349C33.7657 9.23522 33.9276 9.16242 34.1177 9.06509C34.3161 8.95602 34.5385 8.80642 34.6761 8.74509C34.9471 8.62376 35.2345 8.63602 35.3679 8.44562C35.4689 8.41736 35.578 8.11389 35.558 7.85522C35.7076 7.91576 36.4761 8.39309 36.7393 9.43682C36.9295 10.1771 36.5895 11.3179 36.4479 11.8683C36.3063 12.4187 36.2863 12.827 36.0879 13.0776C35.8369 13.4096 35.0281 13.8776 34.8297 14.1094C34.6599 14.2995 34.1503 14.7808 34.1703 15.1286C34.1905 15.3875 34.51 15.5286 34.5791 15.5776C34.6481 15.6267 34.6476 15.687 34.7772 15.6576C34.9068 15.6283 34.9551 15.5686 35.0079 15.5686C35.0684 15.5766 35.0684 15.5888 35.0967 15.5888C35.1172 15.5882 35.1376 15.5854 35.1575 15.5806C35.1575 15.5806 35.1372 15.9488 34.2756 16.0606C34.2148 16.0688 34.1543 16.0888 34.0772 16.1011C34.1785 16.0526 34.2391 16.0526 34.3484 15.903C34.2271 15.8827 33.8791 15.8624 33.79 15.8342C33.8183 15.7856 33.9113 15.656 33.9881 15.5955C34.0569 15.535 33.9801 15.5155 33.9196 15.547C33.8154 15.6179 33.7154 15.6948 33.6201 15.7774C33.5191 15.8664 33.43 15.9878 33.2681 16.0974C33.2196 15.9355 33.2276 15.628 33.418 15.4056C33.3692 15.4136 33.2761 15.5552 33.1873 15.527C33.1713 15.3794 33.1808 15.2302 33.2156 15.0859C33.2641 14.9038 33.5271 14.5843 33.5271 14.5843L34.7972 12.3147L35.0681 10.5955L32.1596 11.1606V11.1611Z" fill="#92723A"/>
<path fill-rule="evenodd" clip-rule="evenodd" d="M32.0916 11.2582C32.0916 11.2582 32.0228 11.3067 32.1604 11.3998C32.1401 11.428 32.0916 11.5291 32.0308 11.5979C31.9623 11.6779 31.8892 11.7275 31.8609 11.7963C31.8004 11.9379 31.7518 12.035 31.7518 12.0958C31.7518 12.1566 31.7316 12.5448 31.5617 12.7955C31.5009 12.8846 31.4321 13.0342 31.3836 13.1352C31.2825 13.3131 31.1935 13.4552 31.1732 13.5352C31.1329 13.6768 31.1047 14.0651 31.1047 14.0651C31.1047 14.0651 31.1937 13.9558 31.226 13.9155C31.1772 14.0166 31.1247 14.1256 31.0479 14.2067C31.0964 14.1662 31.238 14.0651 31.4767 13.8547C31.8084 13.5758 32.3263 13.1064 32.9575 12.7347C32.7671 12.8035 32.6054 12.8035 32.4761 12.8238C32.5772 12.7227 33.4873 11.6547 33.9647 11.5536C33.9936 11.5169 34.0081 11.4707 34.0052 11.424L33.5964 11.3838L32.7671 11.5616L32.646 10.9216L32.0916 11.2574V11.2582Z" fill="#B18E3E"/>
<path fill-rule="evenodd" clip-rule="evenodd" d="M33.4107 14.8988C33.4107 14.8988 33.3014 15.0079 33.2003 15.2791C33.1225 15.1979 33.0558 15.1067 33.0019 15.0079C32.8523 14.7572 32.6219 14.4375 32.0838 14.6196C32.0758 14.4498 32.0635 14.3607 32.0838 14.2394C32.1729 14.2194 32.4438 14.001 32.7147 13.6812C32.9051 13.4628 33.083 13.2119 33.2043 12.8924C33.2843 12.8316 33.4227 12.7306 33.6043 12.6132C33.8633 12.4354 34.1747 12.1924 34.2233 11.9215C34.1019 11.97 33.843 12.0914 33.4545 12.0714C33.6043 12.0026 33.8347 11.9298 33.8065 11.6303C33.8673 11.5898 33.9158 11.5615 33.9158 11.5615C33.8702 11.5463 33.8222 11.5394 33.7742 11.5412C33.7659 11.513 33.7539 11.4727 33.6851 11.4927C33.6163 11.5127 33.6051 11.513 33.5961 11.5412C33.5678 11.5495 33.4747 11.5412 33.4059 11.59C33.3371 11.6388 33.147 11.8002 33.0742 11.8284C33.1025 11.7799 33.1427 11.7074 33.1427 11.7074C33.1427 11.7074 32.9446 11.7274 32.803 11.7874C32.5441 11.8764 32.2449 12.0383 31.9414 12.1959C31.9697 12.1474 31.9819 12.1159 32.0019 12.1068C32.0219 12.0978 32.0707 12.0868 32.0707 12.0786C32.0707 12.0703 32.0507 11.9986 32.0627 11.9695C32.1535 11.7773 32.2605 11.5933 32.3827 11.4194C32.5243 11.229 32.5526 10.958 32.5526 10.958L33.1715 10.6466L34.911 10.2466L36.0398 10.3154L35.8982 11.0962L35.2315 12.4594L34.6611 13.7012L34.0097 14.462L33.411 14.8988H33.4107Z" fill="#543E26"/>
<path fill-rule="evenodd" clip-rule="evenodd" d="M36.2301 11.52C36.2301 11.52 35.5504 12.3614 35.3602 12.491C35.4816 12.232 36.2301 10.6907 36.501 10.2619C36.4405 10.2134 36.3594 10.2134 36.5496 9.46191C36.388 9.84191 36.3312 10.0403 36.1978 10.1414C36.0645 10.2424 36.048 10.2102 35.9578 10.2102C35.9749 10.1794 35.9818 10.1441 35.9778 10.1091C35.9778 10.1091 35.4074 10.0403 35.0178 10.0403C34.6282 10.0403 33.857 10.2507 33.428 10.4206C33.0882 10.5622 32.8981 10.5622 32.7768 10.651C32.6554 10.752 32.5866 10.8614 32.5258 10.8896C32.4773 10.9179 32.2469 10.9907 32.1941 11.0675C32.1456 11.1475 32.0648 11.2374 32.0648 11.2576C32.0648 11.2779 32.0445 11.3064 32.1053 11.2859C32.1253 11.2779 32.2752 11.1968 32.445 11.0958C32.6754 10.9664 32.9546 10.8168 33.157 10.7278C33.7354 10.4971 33.9176 10.5376 34.1762 10.4891C34.4472 10.4406 34.8357 10.3272 35.0944 10.3272C35.3533 10.3192 35.8429 10.3272 35.9562 10.3475C35.9077 10.388 35.8672 10.4366 35.8874 10.6064C35.8874 10.655 35.8469 10.7075 35.8074 10.8248C35.6864 11.1566 35.4557 11.7067 35.3274 11.9859C35.1496 12.3659 34.9474 12.6856 34.8474 12.8838C34.7474 13.0819 34.5274 13.6038 34.3096 13.883C34.0917 14.1622 33.9778 14.332 33.9096 14.3928C33.8413 14.4536 33.3512 14.8134 33.3877 14.943C33.4768 14.9147 34.0392 14.703 34.4474 14.2432C34.8557 13.7835 34.937 13.503 35.2565 13.252C35.576 13.0011 35.8269 12.5806 35.9765 12.2328C36.1018 11.9091 36.0736 11.808 36.2312 11.5208L36.2301 11.52Z" fill="#806031"/>
<path fill-rule="evenodd" clip-rule="evenodd" d="M21.5822 17.7994C21.5822 17.7994 21.4932 18.1674 21.2908 18.3495C21.0926 18.5277 20.7406 18.6813 20.7004 18.9807C20.6518 19.2799 21.0524 19.4298 21.0524 19.4298C21.0524 19.4298 20.8337 19.7898 20.8337 20.0607C20.8337 20.3399 20.8257 20.3925 20.854 20.6594C20.8219 20.68 20.7946 20.7073 20.774 20.7394C20.774 20.7394 20.794 20.9983 20.9924 21.1599C21.1908 21.3215 21.3604 21.4189 21.4614 21.3783C21.4769 21.4113 21.4904 21.4451 21.502 21.4797C21.502 21.4797 21.6518 21.0994 21.7529 20.7677C21.854 20.4279 21.943 20.4762 21.9833 20.0191C22.0236 19.5621 22.4633 18.7773 22.4633 18.7773L22.7633 18.1066L22.274 17.7263L21.5822 17.7991V17.7994Z" fill="#B6903C"/>
<path fill-rule="evenodd" clip-rule="evenodd" d="M22.4917 18.4587C22.3908 18.5623 22.2976 18.6732 22.213 18.7905C22.0837 18.9686 21.9826 19.1302 21.7925 19.1993C21.6023 19.2683 21.481 19.2678 21.493 19.4582C21.505 19.6486 21.6831 19.7291 21.7842 19.8262C21.8935 19.9273 21.9826 20.0971 21.9341 20.2875C21.9946 20.2593 22.1039 20.2267 22.205 20.0083C22.3061 19.7899 23.013 18.459 23.013 18.459H22.4917V18.4587Z" fill="#685026"/>
<path fill-rule="evenodd" clip-rule="evenodd" d="M25.2799 15.3882C25.2799 15.3882 25.3404 15.2266 25.2799 15.1092C25.2191 14.9879 24.8511 14.9474 24.6689 14.8098C24.4788 14.6682 24.2481 14.5698 24.058 14.6319C24.0863 14.5631 24.1996 14.4132 24.1065 14.381C24.0175 14.3527 23.686 14.5023 23.5969 14.5711C23.5079 14.6399 23.3055 14.7207 23.2652 14.7695C23.2249 14.8183 23.1559 14.9111 23.1153 14.8706C23.0748 14.8423 23.0548 14.7695 22.986 14.8098C22.9172 14.85 22.586 15.1212 22.5249 15.2791C22.4639 15.437 22.3265 15.789 21.914 16.1892C21.5015 16.5895 21.3233 16.8487 21.4447 16.9983C21.566 17.1479 21.6228 17.0388 21.6431 17.1682C21.6586 17.2951 21.6518 17.4238 21.6228 17.5484C21.5743 17.7588 21.4935 17.957 21.6025 17.9975C21.8817 18.0866 22.1529 17.9175 22.2135 17.9692C22.3348 18.0783 22.1447 18.4708 22.4319 18.5476C22.7233 18.6276 23.0105 18.4788 23.0105 18.4788L24.0703 17.9084L25.0897 17.3706L25.6113 16.3388L25.3316 15.4772L25.2783 15.3882H25.2799Z" fill="#D4B968"/>
<path fill-rule="evenodd" clip-rule="evenodd" d="M24.2803 17.8519C24.2803 17.8519 24.1022 17.5809 24.3208 17.342C24.5395 17.1031 24.8507 17.0023 24.972 16.8527C24.949 16.8242 24.918 16.8031 24.883 16.7921C24.9635 16.648 25.0864 16.5321 25.235 16.4601C25.1744 16.3996 25.0934 16.3511 25.0046 16.3511C24.8062 16.3511 24.6846 16.4724 24.5027 16.4724C24.3248 16.4724 24.3046 16.3833 24.3046 16.3833C24.3046 16.3833 24.604 16.3551 24.5755 16.2215C24.5472 16.0799 24.4955 16.0799 24.4955 16.0799C24.4955 16.0799 25.0739 15.8399 25.175 15.7119C25.276 15.5839 25.264 15.4327 25.2843 15.3721C25.3528 15.3721 25.7534 15.1617 25.9152 15.2508C26.0771 15.3399 25.9638 15.5825 25.9638 15.5825C25.9638 15.5825 26.4536 15.2143 26.7032 14.8532C26.9216 14.8735 27.0232 14.7036 27.1832 14.7036C27.3816 14.7036 27.6931 14.9745 27.7536 15.5529C27.7942 15.8847 27.8547 16.0748 27.7942 16.6615C27.7659 16.9932 27.7739 17.7015 27.8742 18.0529C27.9427 18.3321 28.1046 18.3039 28.1046 18.3039C28.0797 18.389 28.0305 18.4649 27.963 18.5223C27.8536 18.6233 27.8416 18.8905 27.8536 18.9916C27.8698 19.0655 27.8901 19.1384 27.9144 19.21C27.9144 19.21 27.7851 19.3596 27.7526 19.4609C27.7243 19.562 27.591 19.6308 27.4936 19.6308C27.3963 19.6308 27.4451 19.6225 27.3158 19.6308C27.1864 19.6391 27.1459 19.6591 27.0648 19.6308C26.9838 19.6025 26.9232 19.57 26.9558 19.3108C26.984 19.0519 25.9566 18.4492 25.9566 18.4492L24.2766 17.8505L24.2803 17.8519Z" fill="#CCA849"/>
<path fill-rule="evenodd" clip-rule="evenodd" d="M22.35 20.4086C22.35 20.4086 22.718 20.8982 24.231 20.8982C24.951 20.8982 25.202 20.8294 25.351 20.7889C25.5129 20.7483 26.1196 20.5099 26.7305 19.7897C27.2806 19.1385 27.1593 18.8715 27.1593 18.8715L26.8393 18.823L25.7993 18.9646L22.722 20.2753L22.3486 20.4086H22.35Z" fill="#585136"/>
<path fill-rule="evenodd" clip-rule="evenodd" d="M23.4786 20.5299C23.4786 20.5299 22.168 20.8214 22.168 19.992C22.168 19.183 22.977 18.3334 23.1794 18.1838C23.3898 18.0339 23.8914 17.8638 23.8914 17.8638H25.101L25.3314 18.4747L25.2304 19.7934L23.4786 20.5296V20.5299Z" fill="#252211"/>
<path fill-rule="evenodd" clip-rule="evenodd" d="M24.6889 18.1109C24.6889 18.1109 24.4383 17.8803 23.8679 18.1909C23.2975 18.5016 22.8361 19.1509 22.8079 19.7405C22.7796 20.2621 23.2367 20.6507 23.9487 20.6709C24.4785 20.6909 24.7983 20.6304 24.9601 20.5909C24.9196 20.5424 24.7092 20.2795 24.7092 20.2795L24.6892 18.1112L24.6889 18.1109Z" fill="#C3B378"/>
<path fill-rule="evenodd" clip-rule="evenodd" d="M24.4419 18.2399C24.4419 18.2399 24.3813 18.1914 24.2019 18.2884C24.0523 18.3684 23.8339 18.5799 23.664 18.7295C23.5547 18.8186 23.4859 18.8588 23.424 18.9276C23.1731 19.2271 22.9627 19.7167 23.0843 19.9594C23.2059 20.202 23.6061 20.4812 24.6256 20.2911L24.4389 18.2402L24.4419 18.2399Z" fill="#E6D89C"/>
<path fill-rule="evenodd" clip-rule="evenodd" d="M24.1097 18.7419C24.1097 18.7419 23.9478 18.9928 23.9478 19.3933C23.9478 19.8019 24.1785 20.4531 25.0281 20.5016C25.6793 20.5421 26.1161 19.5632 26.5894 19.1829C26.9494 18.8917 27.1678 18.8835 27.1678 18.8835C27.1678 18.8835 26.7998 18.4835 25.8169 17.9653C24.8459 17.4435 23.7577 17.3747 23.167 18.1757C23.4462 18.1555 24.3483 17.9248 24.3483 17.9248L24.7894 18.0664L24.1097 18.7421V18.7419Z" fill="#252211"/>
<path fill-rule="evenodd" clip-rule="evenodd" d="M25.3801 19.2719C25.3519 19.2113 25.3316 19.1303 25.4489 19.1103C25.5663 19.0903 25.6188 19.102 25.6593 19.1903C25.6999 19.2785 25.7393 19.3521 25.6793 19.3887C25.6188 19.4209 25.4609 19.3887 25.3799 19.2713L25.3801 19.2719ZM25.19 18.7015C25.19 18.7015 25.1495 18.7297 25.1697 18.6732C25.1777 18.6047 25.2305 18.4831 25.3599 18.5116C25.4892 18.5401 25.4612 18.6815 25.4399 18.722C25.4185 18.7625 25.3105 18.8311 25.2295 18.802C25.2192 18.7994 25.2097 18.7943 25.2017 18.7874C25.1937 18.7804 25.1875 18.7716 25.1836 18.7617C25.1796 18.7519 25.178 18.7413 25.179 18.7307C25.1799 18.7201 25.1833 18.7099 25.1889 18.7009L25.19 18.7015Z" fill="#6F674D"/>
<path fill-rule="evenodd" clip-rule="evenodd" d="M14.2402 18.96C14.2402 18.96 14.5602 19.2 14.932 19.1907C15.3 19.1824 15.7733 18.8024 15.9917 18.5595C16.121 18.4179 16.2317 18.2683 16.3517 18.1509C16.453 18.0499 16.5216 18.0013 16.5701 17.9325C16.6389 17.8525 16.7117 17.7021 16.7482 17.6533C16.6592 17.7221 16.5298 17.8437 16.3962 17.9245C16.2669 18.0045 15.9877 18.1549 15.8744 18.1955C15.7653 18.236 14.6325 18.8355 14.6325 18.8355L14.2402 18.96Z" fill="#AC924C"/>
<path fill-rule="evenodd" clip-rule="evenodd" d="M14.7295 15.9709C14.7295 15.9709 14.9074 15.8495 15.2514 15.7725C15.5831 15.6925 16.2506 15.6309 16.2506 15.6309L16.8007 15.8709L17.0191 16.7002L16.6191 17.5621L16.1095 17.8821L15.5308 16.9517L14.7308 15.9725L14.7295 15.9709Z" fill="#9F8E57"/>
<path fill-rule="evenodd" clip-rule="evenodd" d="M14.0088 16.7113L13.8184 16.8535C13.8184 16.8535 13.8672 16.7644 13.9074 16.4935C13.9477 16.2225 14.1584 15.5631 14.4658 15.1828C14.7733 14.8025 14.7653 14.8228 14.7653 14.8228C14.737 14.8176 14.7079 14.8185 14.68 14.8255C14.6521 14.8324 14.626 14.8452 14.6034 14.8631C14.644 14.7735 14.9029 14.4535 15.1618 14.2935C15.4208 14.1335 15.5218 14.0831 15.7928 14.2135C16.0637 14.3439 16.1325 14.4116 16.3309 14.4036C16.5293 14.3956 16.6989 14.1852 16.6989 14.1852C16.6989 14.1852 16.7394 14.3145 16.5898 14.614C16.4402 14.9135 15.8496 15.5241 15.8496 15.5241L14.6197 16.3655L14.0088 16.7121V16.7113Z" fill="#EAC970"/>
<path fill-rule="evenodd" clip-rule="evenodd" d="M14.919 15.8699C14.919 15.8699 15.8092 15.9912 16.0801 15.7406C16.0881 15.7688 16.1206 15.7688 16.1206 15.7891C16.1185 15.8044 16.1113 15.8185 16.1004 15.8294C16.1298 15.8247 16.1596 15.822 16.1894 15.8214C16.2251 15.832 16.2617 15.8388 16.2988 15.8416C16.3286 15.841 16.3584 15.8382 16.3878 15.8334C16.385 15.8535 16.3782 15.8728 16.3677 15.8902C16.3573 15.9076 16.3435 15.9228 16.327 15.9347C16.3676 15.9347 16.407 15.9427 16.407 15.975C16.407 16.0072 16.415 16.1046 16.3665 16.1248C16.3263 16.136 16.2835 16.133 16.2452 16.1166C16.2484 16.1932 16.2692 16.268 16.306 16.3352C16.386 16.4848 16.5566 16.6552 16.786 16.6062C16.786 16.6062 16.907 16.8974 16.3974 17.5446C16.3289 17.6336 16.2558 17.755 16.167 17.856C16.1319 17.9325 16.1051 18.0125 16.087 18.0947C16.087 18.0947 16.9489 17.763 17.1956 17.0064C17.4465 16.2459 17.495 15.4976 17.4465 14.7979C17.4382 14.5995 17.406 14.4582 17.3574 14.3568C17.2361 14.1059 16.8961 14.1464 16.7588 14.288C16.5604 14.4864 16.2286 14.9798 15.7676 15.3195C15.2982 15.6592 15.2782 15.7195 14.918 15.8699H14.919Z" fill="#D7BC6B"/>
<path fill-rule="evenodd" clip-rule="evenodd" d="M13.8514 16.9622C13.8514 16.9622 13.6816 17.0633 13.5925 17.4422C13.5034 17.8305 13.6725 18.3038 13.7704 18.4534C13.8682 18.603 14.0904 19.0118 14.5512 19.0321C14.6652 19.0315 14.778 19.0081 14.8829 18.9633C15.0437 18.8895 15.1946 18.7957 15.332 18.6841C15.5304 18.5345 15.692 18.4052 15.6717 18.3929C15.6232 18.3726 14.4501 17.4017 14.4501 17.4017L14.009 16.9094L13.8512 16.9628L13.8514 16.9622Z" fill="#585136"/>
<path fill-rule="evenodd" clip-rule="evenodd" d="M14.9598 18.5719C14.9598 18.5719 15.1985 18.5519 15.3401 18.4629C15.4817 18.3738 14.5107 17.4111 14.5107 17.4111L14.5795 18.4511L14.9598 18.5719Z" fill="#453A25"/>
<path fill-rule="evenodd" clip-rule="evenodd" d="M13.9281 16.8891C13.9281 16.8891 13.8067 17.1197 13.8067 17.1805C13.7865 17.3787 13.8473 18.0016 13.8958 18.1997C13.9443 18.4101 14.2073 18.7296 14.5473 18.7296C14.7574 18.7296 15.0489 18.6003 15.0489 18.568C15.0489 18.5275 14.7494 18.488 14.6686 18.3373C14.6201 18.2573 14.5998 18.0584 14.5886 17.8573C14.5806 17.728 14.5806 17.5864 14.6291 17.5373C14.7385 17.416 14.7585 17.068 14.7585 17.068L15.1467 16.3467H14.6361L14.0251 16.7269L13.9281 16.8891Z" fill="#84754B"/>
<path fill-rule="evenodd" clip-rule="evenodd" d="M13.7783 17.1117C13.7783 17.1117 14.1783 16.5818 14.5389 16.4602C14.8994 16.3386 15.0607 16.4117 15.0607 16.4117L14.8503 16.9498L14.5509 17.2816L14.5711 17.4514C14.5711 17.4514 14.5223 17.9005 14.8218 18.212C15.1213 18.5234 15.3437 18.5114 15.4733 18.5114C15.6029 18.5114 15.9749 18.4021 16.165 17.953C16.3349 17.5325 16.4765 16.993 16.1367 16.4522C15.8047 15.9141 15.2183 15.8933 15.105 15.8933C14.9917 15.8933 14.1018 15.9378 13.7783 17.1109V17.1117Z" fill="#252211"/>
<path fill-rule="evenodd" clip-rule="evenodd" d="M24.049 18.9117C23.8994 18.8429 24.041 18.4223 24.1906 18.2927C24.3402 18.1631 24.5303 18.0138 24.8623 17.9933C24.9834 17.9853 25.1007 18.0621 25.0807 18.1431C25.0525 18.2927 24.8421 18.5031 24.6519 18.6527C24.389 18.8591 24.2189 18.9885 24.049 18.9117Z" fill="#F7F7E7"/>
<path fill-rule="evenodd" clip-rule="evenodd" d="M15.9591 16.6182C16.0685 16.6102 16.2101 16.6982 16.2383 16.8166C16.2666 16.9459 16.1695 17.2048 15.9591 17.2048C15.7893 17.2048 15.7002 16.9944 15.7002 16.9339C15.7021 16.8841 15.716 16.8356 15.7407 16.7923C15.7487 16.78 15.769 16.6384 15.9591 16.6182Z" fill="#F8F6DE"/>
<path fill-rule="evenodd" clip-rule="evenodd" d="M14.3815 16.7112C14.3815 16.7112 14.1023 16.8405 13.973 17.1112C13.8806 17.3111 13.8526 17.5347 13.893 17.7512C13.9133 17.8522 14.0143 18.1029 14.0831 18.192C14.1519 18.281 14.245 18.3418 14.3138 18.3336C14.3826 18.3253 14.5239 18.1434 14.5239 18.0344C14.5239 17.9253 14.5322 17.464 14.6655 17.213C14.7829 16.9624 14.3823 16.7114 14.3823 16.7114L14.3815 16.7112Z" fill="#D4C38B"/>
<path fill-rule="evenodd" clip-rule="evenodd" d="M14.422 16.691C14.3735 16.7193 14.2927 16.7598 14.3127 16.8124C14.333 16.8609 14.5028 16.8924 14.5636 17.0108C14.6324 17.1321 14.6324 17.2614 14.6122 17.3222C14.665 17.2971 14.7129 17.2628 14.7538 17.2209C14.8428 17.1198 14.9519 16.9825 15.045 16.9825C15.1058 16.9825 15.1663 17.0108 15.2231 17.0108C15.3122 17.0108 15.401 16.9825 15.4132 16.8894C15.4332 16.7681 15.2434 16.6588 15.134 16.679C15.1543 16.599 15.1826 16.4809 15.0935 16.3998C15.0044 16.3188 14.7255 16.4606 14.6647 16.5012C14.6039 16.5417 14.422 16.6913 14.422 16.6913V16.691Z" fill="#E2D59D"/>
<path fill-rule="evenodd" clip-rule="evenodd" d="M20.8497 25.1902L21.4484 25.0134L21.6182 25.1348C21.6182 25.1348 21.7393 25.3937 21.9297 25.426C21.8689 25.5553 21.711 25.666 21.7193 25.7577C21.7276 25.8494 21.8084 25.9196 21.8084 25.9196C21.8084 25.9196 21.2702 26.8094 22.3302 27.7062C22.0793 27.8073 21.7598 27.9462 21.59 28.0262C21.711 28.0545 21.97 28.1062 22.0793 28.2044C22.1886 28.3025 22.1886 28.3337 22.2897 28.3945C22.3908 28.4553 22.4513 28.5361 22.4313 28.5724C22.3625 28.5318 22.1318 28.4108 22.0916 28.5238C22.0513 28.6369 21.0924 28.5926 21.0924 28.5926L19.4742 28.9041C19.4742 28.9041 19.5348 28.7422 19.3649 28.5926C19.1668 28.4148 18.9241 28.6006 18.6652 28.4025C18.3254 28.1436 18.3132 27.8441 18.2041 27.731C18.3132 27.6622 18.5358 27.5612 19.0657 27.491C19.0454 27.4505 18.9766 27.3292 19.0172 27.2201C19.0657 27.0785 19.2678 26.9894 19.2073 26.8201C19.2964 26.7998 19.3366 26.7998 19.5593 26.5206C19.7697 26.2414 19.899 26.1809 20.0609 26.1606C20.2228 26.1404 20.3198 26.1606 20.6193 25.8814C20.8294 25.6833 20.7609 25.5134 20.7609 25.5134C20.7609 25.5134 20.8982 25.4689 20.85 25.1897L20.8497 25.1902Z" fill="#CBAC5A"/>
<path fill-rule="evenodd" clip-rule="evenodd" d="M19.0815 25.2801C19.0895 25.2395 19.122 25.2193 19.3404 25.2395C19.5588 25.2598 20.9423 25.1102 21.3186 25.0899C21.6988 25.0617 23.0378 25.0817 23.6892 25.2193C24.3407 25.3569 24.9999 25.5187 25.3194 25.5995C25.6394 25.6886 25.7402 25.7206 25.7279 25.7611C25.7199 25.8017 25.6479 25.8411 25.6066 25.8299C25.5663 25.8219 24.5063 25.4982 24.1788 25.4299C23.8514 25.3617 22.7183 25.179 22.0988 25.1899C21.5204 25.1982 21.2898 25.1819 20.8004 25.2385C20.3108 25.2993 19.5018 25.3801 19.2591 25.3478C19.0191 25.3195 19.0687 25.3195 19.081 25.279L19.0815 25.2801Z" fill="#D6BC6F"/>
<path fill-rule="evenodd" clip-rule="evenodd" d="M22.3382 28.4506C22.3382 28.4506 23.1675 28.8997 23.467 29.4498C23.6854 29.8583 23.3377 30.0607 23.3377 30.0607C23.3377 30.0607 23.807 30.0607 23.7462 30.3197C23.7179 30.4813 22.9371 30.9181 22.4153 31.1487C21.8854 31.3794 21.9057 31.3674 21.6467 31.4077C21.3958 31.4482 20.7081 31.3277 20.5665 31.529C20.4249 31.7303 20.4865 31.9378 20.5259 31.9701C20.5665 31.9983 20.8942 32.0389 20.8942 32.0389C20.8942 32.0389 20.8254 32.229 20.1459 32.2493C19.4665 32.2695 19.2963 32.3178 19.2558 32.3909C19.2153 32.4594 19.3851 32.4191 19.6969 32.4709C20.0083 32.5194 20.4451 32.5509 20.4451 32.5509C20.4451 32.5509 20.3035 32.6722 19.9355 32.7693C19.5147 32.8783 18.8553 32.9797 18.6571 33.101C18.7582 33.1698 18.9081 33.2709 18.9771 33.2789C18.8073 33.3194 18.5683 33.4085 18.5281 33.4407C18.5886 33.4813 18.6697 33.5298 18.6697 33.5298C18.6697 33.5298 18.3297 33.9383 18.1315 34.0397C17.9334 34.141 16.7926 34.6706 16.4001 34.5695C15.4211 34.3106 15.2998 33.2386 15.0611 33.1578C14.7011 33.0365 14.5313 33.2789 14.2115 33.109C14.3531 33.0079 14.4302 32.9474 14.5798 32.8786C14.4179 32.7986 13.5806 32.2677 13.5806 32.2677C13.493 32.0768 13.3958 31.8905 13.2894 31.7095C13.1275 31.4303 12.8894 31.0581 12.7107 30.7303C12.3225 30.0103 12.3022 29.6786 11.9502 29.2701C12.011 29.1901 12.2211 29.2013 12.2211 29.2013L15.1705 30.1722L20.4001 30.3237L21.7601 28.3821L22.3385 28.4509L22.3382 28.4506Z" fill="#DFC677"/>
<path fill-rule="evenodd" clip-rule="evenodd" d="M14.5918 31.4117C14.6234 31.4468 14.6601 31.4768 14.7009 31.5007C14.8022 31.5695 14.9518 31.6506 15.0529 31.7717C15.0934 31.7111 15.1945 31.6018 15.3729 31.7717C15.5513 31.9415 15.7729 31.8205 15.9107 31.8607C16.0523 31.9095 16.0603 31.9295 16.0603 31.9295C16.0603 31.9295 16.1403 31.8607 16.3193 31.7879C16.4286 31.7474 16.5579 31.7191 16.6995 31.6789C16.8289 31.6506 16.9705 31.6101 17.0678 31.6101C17.1569 31.6706 17.4763 32.0101 18.7587 31.509C19.9683 31.0397 20.2473 30.9871 20.4497 31.0597C20.4699 31.0111 20.4902 30.9181 20.8017 30.9303C20.8017 30.801 20.5427 30.3599 20.5427 30.3599L19.1147 29.8706H18.3337L15.9915 30.2994L14.6937 31.0399L14.5926 31.4133L14.5918 31.4117Z" fill="#C4A859"/>
<path fill-rule="evenodd" clip-rule="evenodd" d="M13.8105 30.5906C13.8105 30.5906 13.8388 30.809 14.1625 31.0396C14.4825 31.27 14.5831 31.4076 14.5831 31.4076C14.5831 31.4076 14.6439 31.3276 14.6924 31.246C14.7409 31.157 14.7815 31.0559 14.8623 31.0276C15.0241 30.9588 15.3921 31.0882 15.4732 31.0679C15.542 31.0479 15.5217 30.9063 15.5945 30.9063C15.7644 30.898 15.8735 31.0154 15.9343 31.0154C15.9951 31.0154 16.1444 31.0074 16.1647 30.9751C16.1849 30.9428 16.1929 30.6068 16.4236 30.445C16.6745 30.2671 16.982 30.3439 17.0636 30.3844C17.0636 30.445 17.0716 30.5948 17.2335 30.6028C17.3953 30.6108 17.4113 30.5826 17.5535 30.6311C17.6956 30.6796 17.8649 30.6231 17.9417 30.8615C18.0105 30.8415 18.1724 30.8212 18.1319 30.5906C18.2119 30.53 18.2817 30.4895 18.4519 30.2508C18.4924 30.1903 18.5609 30.1215 18.6137 30.0324C18.7553 30.0324 18.9252 30.0042 19.1516 30.2023C19.0828 30.2508 19.0423 30.2823 19.0223 30.3316C19.0815 30.3903 19.1356 30.4539 19.1839 30.5218C19.2447 30.6018 19.2852 30.6999 19.362 30.7202C19.5319 30.7687 19.8111 30.6999 20.1225 30.7202C20.422 30.7404 20.6727 30.8495 20.782 30.9183C20.8225 30.8983 20.8225 30.89 20.9236 30.9103C21.0247 30.9306 21.1015 30.9386 20.9924 30.8092C21.0529 30.8375 21.1217 30.8983 21.1825 30.8375C21.2433 30.7767 21.2916 30.6879 21.4615 30.6676C21.6313 30.6474 21.6921 30.6756 21.7609 30.4978C21.85 30.2794 21.5425 30.2794 21.5425 30.2794C21.5425 30.2794 21.6841 30.1498 21.842 29.9799C22.0321 29.802 22.2505 29.5714 22.3031 29.2882C22.3921 28.7663 21.8825 28.6978 21.8825 28.6978L19.4108 29.4583L16.3889 29.3084L13.8121 30.5908L13.8105 30.5906Z" fill="#927D49"/>
<path fill-rule="evenodd" clip-rule="evenodd" d="M11.5896 23.4506C11.5896 23.4506 11.5096 23.5517 11.4603 23.7904C11.411 24.029 11.432 24.0008 11.3915 24.1706C11.351 24.3405 10.8531 26.0314 11.0398 26.6018C11.2264 27.1722 11.5496 27.3826 11.7518 27.8437C11.7923 27.9448 11.8318 28.0056 11.8528 28.0946C11.9216 28.3938 11.8611 28.6245 11.9419 28.924C11.9702 29.025 12.0432 29.1424 12.1523 29.2637C12.3923 29.5144 12.7835 29.753 12.9523 29.9229C13.1907 30.1738 13.5307 30.6837 13.9635 30.732C14.1942 30.7602 14.5219 30.6632 14.7928 30.5016C15.0328 30.3517 15.1811 30.1416 15.4328 30.0216C15.6107 29.9325 15.8008 29.9002 15.9707 29.8597C16.3227 29.7909 16.6424 29.7797 16.8326 29.8192C17.1238 29.88 17.8115 30.0904 18.1926 30.0904C18.4903 30.0856 18.7864 30.0448 19.0744 29.969C19.6528 29.7992 20.3526 29.5077 20.8139 29.3784C21.0848 29.2984 21.3032 29.2773 21.5259 29.2288C21.9062 29.1397 22.2256 29.0184 22.4078 28.7877C22.2864 28.6461 22.1368 28.4277 21.3275 28.4357C20.4094 28.456 19.3494 28.9656 18.8275 29.0466C18.3056 29.1277 18.0792 29.1962 17.4966 28.9858C16.9254 28.7733 16.9064 28.6328 16.9064 28.6328C16.9064 28.6328 16.3067 28.2133 16.0558 27.144C15.8048 26.0746 16.0558 25.2954 16.7072 24.5549C16.8771 24.3648 16.8366 24.1949 16.8366 24.1949C16.8366 24.1949 17.2654 23.6165 17.148 23.0749C17.0187 22.5368 16.1894 22.6461 16.1894 22.6461L11.5899 23.4506H11.5896Z" fill="#6E6342"/>
<path fill-rule="evenodd" clip-rule="evenodd" d="M12.2815 25.251C12.2458 25.318 12.2291 25.3935 12.233 25.4694C12.241 25.5784 12.2735 25.72 12.601 26.0398C12.8802 26.3187 12.8194 26.6302 12.8194 26.6302C12.8194 26.6302 12.9599 26.6584 13.3412 26.48C13.6407 26.3384 13.7412 26.5894 13.7412 26.5894C13.8284 26.5437 13.9229 26.5135 14.0204 26.5003C14.1088 26.4922 14.1944 26.4649 14.2711 26.4203C14.2711 26.4203 14.6231 26.7803 14.9306 26.9502C15.2098 27.1 15.3716 27.2011 15.5092 27.1C15.6386 27.011 15.6386 26.8288 15.6303 26.748C15.5982 26.6735 15.5576 26.6029 15.5092 26.5376C15.4202 26.4083 15.2786 26.2584 15.2692 26.1376C15.249 25.8587 15.4796 25.5267 15.4308 25.4459C15.382 25.3651 15.2004 25.3448 14.7514 25.5067C14.2863 25.6603 12.2796 25.2518 12.2796 25.2518L12.2815 25.251Z" fill="#39331F"/>
<path fill-rule="evenodd" clip-rule="evenodd" d="M13.3416 27.0593C13.3416 27.0593 13.1112 26.8409 13.192 25.7809C13.2898 25.7795 13.3875 25.789 13.4832 25.8092C13.4832 25.8092 13.6088 26.6305 13.3416 27.0593Z" fill="#292311"/>
<path fill-rule="evenodd" clip-rule="evenodd" d="M11.6995 22.6417C11.7317 22.6179 11.7615 22.5911 11.7886 22.5617C11.7086 22.7113 11.3393 23.31 11.6387 24.2526C11.9382 25.191 12.6905 25.8908 13.6169 25.9233C14.5433 25.9558 15.0302 25.5025 15.587 24.823C15.8054 24.5521 16.0563 24.2121 16.2787 23.9817C16.6105 23.6214 16.8694 23.5204 16.8694 23.1726C16.8694 22.4606 16.1411 22.1409 15.0691 21.8214C13.9971 21.502 13.0302 21.5414 12.5286 21.7601C12.0393 21.9985 11.8289 22.2494 11.6993 22.642L11.6995 22.6417Z" fill="#252211"/>
<path fill-rule="evenodd" clip-rule="evenodd" d="M15.1414 27.3788L15.2214 27.3382C15.2214 27.3382 15.2414 27.0182 15.371 27.0268C15.5004 27.047 15.5612 27.2172 15.5489 27.2777C15.5409 27.3382 15.5086 27.4396 15.379 27.4273C15.2092 27.4313 15.1406 27.3788 15.1406 27.3788H15.1414Z" fill="#3F3824"/>
<path fill-rule="evenodd" clip-rule="evenodd" d="M14.7812 26.0195C14.7812 26.0195 14.8612 25.9912 14.9591 26.0883C15.0391 26.0883 15.3879 26.0477 15.4972 26.1165C15.6066 26.1853 15.6388 26.2459 15.6388 26.2459C15.6388 26.2459 15.2303 26.3349 15.0076 26.2459C14.7812 26.1691 14.7812 26.0195 14.7812 26.0195Z" fill="#2D2815"/>
<path fill-rule="evenodd" clip-rule="evenodd" d="M16.5819 26.0799C16.5819 26.0597 16.3635 25.9101 16.1329 25.8613C16.0923 25.8533 16.0841 25.8815 16.0529 25.8815C16.0326 25.8735 16.0246 25.8127 16.0246 25.8127L15.8934 25.8818C15.8934 25.8818 15.8731 25.9101 15.9419 25.9618C16.0025 26.0103 16.1038 26.0509 16.1321 26.1317C16.1603 26.2125 16.1603 26.2407 16.1726 26.253C16.1806 26.261 16.3222 26.253 16.391 26.2125C16.4598 26.1719 16.5894 26.1058 16.5811 26.0791L16.5819 26.0799Z" fill="#82764F"/>
<path fill-rule="evenodd" clip-rule="evenodd" d="M14.5391 26.9014C14.5391 26.9014 14.5793 26.6225 14.8505 26.6102C15.1295 26.5899 15.1823 26.8609 15.1823 26.8609L15.0204 27.0227C15.0204 27.0187 14.8991 26.8489 14.5404 26.9014H14.5391Z" fill="#2D2816"/>
<path fill-rule="evenodd" clip-rule="evenodd" d="M16.2985 25.6997C16.2985 25.6997 16.1486 25.8616 15.8172 25.9101C15.7889 25.8696 15.7281 25.7888 15.8172 25.6594C15.9062 25.5301 16.0073 25.4896 16.1084 25.5298C16.1529 25.537 16.1945 25.5569 16.2282 25.587C16.2619 25.6171 16.2863 25.6562 16.2985 25.6997Z" fill="#574F35"/>
<path fill-rule="evenodd" clip-rule="evenodd" d="M16.9094 25.8982C16.9176 25.8577 16.8894 25.8497 16.9094 25.8294C16.9294 25.8092 17.039 25.7689 17.0592 25.7889C17.0672 25.7972 17.0592 25.8294 17.0592 25.8689C17.0592 25.9084 17.0592 25.9489 17.039 25.978C17.0107 26.0185 16.9299 26.0388 16.8894 26.0268C16.8488 26.0148 16.8408 25.958 16.8408 25.9468C16.8608 25.9388 16.9094 25.9185 16.9094 25.8982ZM17.6 25.4614C17.6 25.4412 17.6688 25.4006 17.7094 25.4006C17.7699 25.4006 17.7699 25.4492 17.7782 25.4614C17.7982 25.4694 17.7982 25.4532 17.8184 25.4897C17.8387 25.5262 17.8672 25.5908 17.8467 25.6313C17.8262 25.6718 17.7456 25.6998 17.7256 25.6918C17.6974 25.6716 17.6083 25.4897 17.6 25.4614Z" fill="#82764F"/>
<path fill-rule="evenodd" clip-rule="evenodd" d="M16.21 25.9912C16.21 25.9912 16.299 26.0112 16.4204 26.1126C16.3798 26.1408 16.319 26.1731 16.319 26.1731C16.319 26.1731 16.311 26.08 16.21 25.991V25.9912Z" fill="#6E6342"/>
<path fill-rule="evenodd" clip-rule="evenodd" d="M16.011 25.1011C15.9907 25.0811 16.0715 25.0326 16.1201 25.0406C16.1686 25.0486 16.1889 25.0811 16.2414 25.0891C16.2939 25.0971 16.3022 25.0688 16.3214 25.0486C16.3406 25.0283 16.4105 25.0406 16.4225 25.0486C16.43 25.0574 16.4367 25.0669 16.4427 25.0768C16.4436 25.0614 16.4476 25.0464 16.4545 25.0326C16.4615 25.0189 16.4712 25.0067 16.483 24.9968C16.4985 24.9854 16.5164 24.9777 16.5354 24.9742C16.5543 24.9707 16.5738 24.9715 16.5923 24.9766C16.6003 25.0048 16.6409 25.1059 16.6329 25.1262C16.6249 25.1464 16.5035 25.175 16.483 25.1544C16.5033 25.2032 16.5923 25.3043 16.6043 25.3243C16.6163 25.3443 16.5153 25.3931 16.475 25.3851C16.4185 25.3811 16.0705 25.1787 16.0099 25.1019L16.011 25.1011ZM16.5409 24.4296C16.5334 24.4093 16.5191 24.3921 16.5003 24.3811C16.4721 24.3731 16.379 24.3811 16.379 24.4296C16.379 24.4782 16.459 24.7496 16.5489 24.891C16.6502 25.0326 16.7187 25.1496 16.7875 25.1822C16.8091 25.192 16.8337 25.1933 16.8562 25.1858C16.8787 25.1782 16.8975 25.1625 16.9089 25.1416C16.9169 25.1214 16.9371 24.9718 16.9291 24.6198C16.9211 24.2678 16.9089 23.928 16.8886 23.9078C16.8683 23.8875 16.7875 23.8878 16.7593 23.928C16.731 23.9683 16.5489 24.3691 16.5406 24.4296H16.5409Z" fill="#585136"/>
<path fill-rule="evenodd" clip-rule="evenodd" d="M16.1809 26.5007C16.1809 26.5007 16.0393 26.4116 15.9017 26.4724C15.7724 26.5332 15.7804 26.7719 15.7804 26.7719C15.8095 26.7833 15.8409 26.7874 15.872 26.7838C15.903 26.7803 15.9327 26.7692 15.9585 26.7516C16.0476 26.6911 16.1606 26.59 16.1809 26.5009V26.5007Z" fill="#574F35"/>
<path fill-rule="evenodd" clip-rule="evenodd" d="M16.4482 26.8204C16.4402 26.7404 16.3682 26.7404 16.3682 26.6991C16.3731 26.6793 16.3846 26.6618 16.4007 26.6493C16.4168 26.6369 16.4366 26.6302 16.457 26.6303C16.4975 26.6303 16.537 26.6788 16.5866 26.7103C16.6351 26.7386 16.7079 26.7903 16.7159 26.8519C16.7239 26.9135 16.6359 27.0823 16.538 27.0823C16.4402 27.0823 16.4692 26.9002 16.449 26.8194L16.4482 26.8204ZM17.229 26.7111C17.229 26.7111 17.0671 26.7596 17.0791 26.7111C17.0911 26.6626 17.1279 26.6506 17.1804 26.6506C17.2071 26.6226 17.243 26.6053 17.2815 26.6018C17.3035 26.6007 17.3251 26.6079 17.342 26.622C17.342 26.622 17.4514 26.5735 17.4836 26.6018C17.5159 26.63 17.4919 26.63 17.5119 26.6626C17.5374 26.6987 17.5541 26.7402 17.5607 26.7839C17.5607 26.8162 17.4394 26.885 17.342 26.873C17.229 26.8487 17.249 26.7314 17.229 26.7111ZM18.1714 26.529C18.1714 26.529 18.2199 26.5572 18.1796 26.5898C18.1514 26.618 18.0098 26.6698 17.8882 26.6788C17.7668 26.6788 17.6578 26.6988 17.6578 26.6586C17.6578 26.6183 17.7588 26.5372 17.8194 26.517C17.8315 26.5018 17.8469 26.4895 17.8645 26.4811C17.882 26.4727 17.9012 26.4684 17.9207 26.4684C17.9692 26.4684 18.1591 26.4482 18.2119 26.4402C18.2604 26.4319 18.301 26.4602 18.2724 26.5007C18.2604 26.529 18.1714 26.529 18.1714 26.529ZM18.4506 25.2799C18.4506 25.2799 18.3898 25.4092 18.3212 25.4092C18.2524 25.4012 18.2524 25.381 18.2524 25.3607C18.2524 25.3324 18.3212 25.2596 18.313 25.2394C18.293 25.2394 18.2442 25.2394 18.2524 25.1908C18.2524 25.1503 18.3212 25.1018 18.3818 25.1108C18.4275 25.0732 18.4845 25.0519 18.5436 25.0503C18.6124 25.0503 18.673 25.0703 18.673 25.1108C18.673 25.1514 18.593 25.2402 18.5636 25.2607C18.5314 25.293 18.4908 25.314 18.4506 25.2807V25.2799ZM17.5282 27.6706C17.5282 27.6706 17.4482 27.6788 17.4482 27.7191C17.4482 27.7394 17.4682 27.7394 17.4967 27.7274C17.5131 27.7264 17.5294 27.7237 17.5452 27.7191C17.5532 27.7274 17.5532 27.7676 17.614 27.7676C17.664 27.7609 17.7121 27.7444 17.7556 27.7191C17.8042 27.6991 17.8447 27.6786 17.8447 27.6391C17.8244 27.5703 17.7839 27.5378 17.7234 27.5378C17.6923 27.5358 17.6614 27.5428 17.6343 27.558C17.6343 27.558 17.614 27.5175 17.5452 27.558C17.4764 27.5986 17.4844 27.5986 17.5047 27.6188C17.541 27.6511 17.529 27.6722 17.529 27.6722L17.5282 27.6706ZM17.0711 28.0914C17.0711 28.0711 17.1722 28.0306 17.2004 28.0428C17.2287 28.0508 17.3095 28.2044 17.3095 28.2207C17.3095 28.241 17.2084 28.2895 17.1679 28.2895C17.1274 28.2895 17.0588 28.2207 17.0588 28.2095C17.0588 28.2015 17.1074 28.1895 17.1074 28.1812C17.1194 28.1612 17.0711 28.1124 17.0711 28.0922V28.0914ZM16.7511 27.5007C16.7714 27.4927 16.7714 27.4724 16.7996 27.4522C16.8085 27.4463 16.8186 27.4425 16.8291 27.4411C16.8396 27.4397 16.8504 27.4408 16.8604 27.4442C16.8676 27.4314 16.8774 27.4205 16.8893 27.412C16.9012 27.4036 16.9149 27.3979 16.9292 27.3954C16.9778 27.3874 17.0183 27.3954 17.0092 27.4156C17.0092 27.4764 17.0498 27.5167 17.0498 27.5652C17.0498 27.6138 17.0215 27.6746 16.9204 27.7151C16.8194 27.7434 16.6818 27.7434 16.6615 27.7354C16.6412 27.7274 16.621 27.6463 16.6412 27.6058C16.6615 27.5652 16.718 27.521 16.7506 27.5007H16.7511Z" fill="#82764F"/>
<path fill-rule="evenodd" clip-rule="evenodd" d="M16.8797 27.5283C16.8797 27.5283 16.8109 27.5689 16.8109 27.5891C16.8048 27.6087 16.8021 27.6292 16.8029 27.6497C16.8029 27.6617 16.8919 27.6417 16.9039 27.6294C16.9079 27.6214 16.8797 27.5494 16.8797 27.5283Z" fill="#6E6342"/>
<path fill-rule="evenodd" clip-rule="evenodd" d="M16.2782 27.338C16.3184 27.3463 16.3872 27.338 16.4398 27.3583C16.4803 27.3786 16.5086 27.4191 16.468 27.4676C16.4275 27.5162 16.388 27.589 16.2982 27.5767C16.1971 27.5687 16.1 27.5162 16.1 27.4756C16.0983 27.45 16.1018 27.4243 16.1101 27.4C16.1184 27.3757 16.1315 27.3533 16.1486 27.334C16.1891 27.3018 16.2091 27.322 16.2779 27.338H16.2782Z" fill="#585136"/>
<path fill-rule="evenodd" clip-rule="evenodd" d="M16.2295 27.3787C16.2295 27.3787 16.1001 27.4797 16.0676 27.5285C16.0271 27.5771 15.8289 27.8277 15.7684 27.8803C15.7885 27.8448 15.8114 27.811 15.8369 27.7792C15.7569 27.8304 15.6969 27.9075 15.6671 27.9976C15.6185 28.1475 15.9383 28.2283 16.1484 28.2891C16.3585 28.3499 16.4399 28.3691 16.4399 28.3691C16.3625 28.2528 16.2961 28.1296 16.2415 28.0011C16.1615 27.8109 16.1201 27.7907 16.1727 27.7016C16.2132 27.6125 16.274 27.552 16.274 27.4832C16.2497 27.4192 16.2295 27.3787 16.2295 27.3787Z" fill="#574F35"/>
<path fill-rule="evenodd" clip-rule="evenodd" d="M11.6177 27.6985C11.6472 27.7039 11.6773 27.7039 11.7068 27.6985C11.7673 27.6902 12.3985 27.4585 13.058 27.5001C13.5517 27.5299 14.041 27.6104 14.5183 27.7401C15.3476 27.9585 16.3791 28.3913 17.0465 28.6382C17.2244 28.7068 17.3985 28.8284 17.5265 28.8766C18.0364 29.075 18.0564 29.075 18.3559 29.1276C18.7079 29.1761 19.0679 29.0588 19.4441 28.978C19.9052 28.8766 20.694 28.8281 21.3857 28.727C21.6094 28.696 21.83 28.646 22.0452 28.5774C22.0452 28.5774 21.4951 29.1276 20.1761 29.3257C19.643 29.4067 19.1012 29.4135 18.5663 29.346C18.1455 29.3054 17.8665 29.2446 17.6561 29.1841C17.4175 29.1153 16.9279 28.9332 16.3252 28.7841C15.9044 28.6748 15.4351 28.594 14.8972 28.4929C13.5703 28.25 12.1303 27.971 11.6172 27.7001L11.6177 27.6985Z" fill="#252211"/>
<path fill-rule="evenodd" clip-rule="evenodd" d="M10.1295 25.1985C9.80949 25.4694 9.47002 25.7284 9.13856 25.979L8.13936 26.7468C7.79962 26.9974 7.46789 27.2564 7.12789 27.5073C6.78789 27.7582 6.44842 27.9966 6.08789 28.2273C6.40789 27.9564 6.74736 27.7054 7.08709 27.4588C7.42682 27.2121 7.77909 26.9702 8.10682 26.7201L9.10602 25.9513C9.44976 25.7006 9.78149 25.4417 10.1295 25.199V25.1985ZM8.36176 28.0302C8.36176 28.0302 8.72176 27.7308 9.17082 27.3102C9.72896 26.7886 10.4127 26.1209 10.6311 25.9998L8.36149 28.0305L8.36176 28.0302Z" fill="#CFB66C"/>
<path fill-rule="evenodd" clip-rule="evenodd" d="M8.36133 28.0299C8.53946 27.852 8.72959 27.6782 8.91973 27.508L9.21093 27.2574C9.3 27.1774 9.40133 27.0875 9.49013 26.9984C9.668 26.8206 9.84213 26.6302 10.02 26.4483C10.1082 26.3568 10.2014 26.2704 10.2992 26.1894C10.3481 26.1461 10.4024 26.1093 10.4608 26.08C10.5096 26.0518 10.5621 26 10.6307 25.991C10.5904 26.0518 10.5419 26.08 10.5013 26.1326C10.4528 26.1731 10.4123 26.2216 10.372 26.2619C10.2829 26.351 10.1819 26.4318 10.0928 26.5128C9.90266 26.6747 9.70453 26.8328 9.51439 27.0022C9.32426 27.1715 9.14639 27.3542 8.95599 27.524C8.74986 27.6982 8.55973 27.868 8.36133 28.0307V28.0299ZM10.7805 26.4118C10.7805 26.4118 9.46186 27.7024 9.19066 27.9126L10.7805 26.4118Z" fill="#CFB66C"/>
<path fill-rule="evenodd" clip-rule="evenodd" d="M10.7813 26.4116C10.6626 26.5489 10.5355 26.6786 10.4005 26.7999L10.0005 27.1802C9.87114 27.3095 9.74954 27.4391 9.61221 27.5684C9.47061 27.6898 9.34127 27.8084 9.19141 27.9204L9.57967 27.5402C9.70927 27.4108 9.85087 27.3018 9.98847 27.1722L10.3767 26.7919C10.5101 26.6586 10.6397 26.529 10.7813 26.4116ZM10.8418 27.1114C10.7203 27.4506 10.577 27.7817 10.413 28.1026C10.0733 28.7823 9.56367 29.6316 9.34101 30.0647L10.8418 27.1114Z" fill="#CFB66C"/>
<path fill-rule="evenodd" clip-rule="evenodd" d="M10.8415 27.1118C10.8415 27.2614 10.801 27.391 10.7525 27.5203C10.7052 27.6498 10.6512 27.7767 10.5909 27.9006C10.5301 28.022 10.4613 28.1515 10.3925 28.2689C10.3237 28.3862 10.2429 28.5073 10.1821 28.6289L9.77353 29.3489C9.63193 29.5889 9.49433 29.8302 9.34473 30.0609C9.44579 29.802 9.58339 29.5593 9.71299 29.3206C9.85459 29.0806 9.98393 28.8406 10.113 28.5923C10.176 28.4686 10.2327 28.3418 10.2829 28.2123C10.3434 28.0827 10.4039 27.9614 10.4527 27.8441C10.5133 27.7148 10.5618 27.5931 10.6226 27.4761C10.6911 27.3505 10.7479 27.2291 10.841 27.1118H10.8415Z" fill="#CFB66C"/>
<path fill-rule="evenodd" clip-rule="evenodd" d="M12.2818 30.4287C12.2818 30.4287 11.8818 30.9586 11.9218 31.63C12.0308 31.2783 12.1684 30.7402 12.2818 30.4287ZM12.662 30.9599C12.662 30.9599 12.5204 32.3999 12.4031 33.1079C12.569 32.2895 12.6012 32.3583 12.662 30.9599ZM15.3116 33.193C15.3116 33.193 14.713 34.953 14.7007 35.442C14.8303 34.9391 15.081 33.9116 15.3116 33.1916V33.193Z" fill="#DEC270"/>
<path fill-rule="evenodd" clip-rule="evenodd" d="M16.7109 30.3201C16.7109 30.3201 17.6819 31.9219 18.4101 33.2891C18.2131 32.6011 17.7597 31.3393 16.7109 30.3201Z" fill="#CBAF59"/>
<path fill-rule="evenodd" clip-rule="evenodd" d="M19.3203 32.6782C19.8534 33.6205 20.3341 34.5915 20.7603 35.5868C20.6795 34.899 20.4608 33.722 19.3203 32.6782Z" fill="#E3C677"/>
<path fill-rule="evenodd" clip-rule="evenodd" d="M26.9902 35.04C27.1518 34.939 27.4715 34.3886 27.7507 34.2512C28.0297 34.1096 28.2401 34.0813 28.491 33.8021C28.7417 33.5107 28.811 33.3328 29.3606 33.1024C30.1294 32.7704 29.6006 32.3416 29.6006 32.3416C29.6853 32.2584 29.7758 32.1814 29.8715 32.1112C30.0699 31.9616 30.3003 31.7795 30.2803 31.4598C30.2521 30.9219 30.151 30.1411 29.7099 29.688C30.1387 29.599 30.9598 29.5384 31.4699 29.4091C32.0603 29.2592 32.3315 29.0488 32.3315 29.0488C32.3315 29.0488 31.9918 28.4704 32.5419 27.888C33.0921 27.3056 33.5411 26.9576 33.8729 26.3062C33.4926 26.2576 32.9129 26.0555 31.4334 26.6176C31.5133 26.6552 31.5904 26.6984 31.6641 26.747C31.6641 26.747 30.7539 26.9979 30.4222 27.2771C29.8435 27.7664 29.7707 28.167 29.1438 28.4664C28.5169 28.7659 27.8857 28.6848 27.3641 28.9275C26.8425 29.1702 26.7654 29.3766 26.575 29.4656C26.6155 29.5142 26.567 29.595 26.6438 29.6638C26.5953 29.7326 26.3121 30.1936 26.0249 30.1936C26.0531 30.303 26.2958 30.3838 26.2958 30.3838C26.2958 30.3838 26.1179 30.5134 25.6649 30.5456C25.8953 30.7856 26.1139 31.0472 26.7166 31.4275C26.6681 31.5286 26.4657 31.6784 26.5467 31.8685C26.6358 32.0587 26.8667 32.3176 27.7886 32.528C27.3193 32.548 26.7694 32.6574 26.0286 32.5563C25.2883 32.4672 25.167 32.4147 24.7099 32.528C24.7585 32.5766 24.8878 32.5766 25.0011 32.7059C24.8798 32.7139 24.1193 32.6168 23.8603 32.9568C23.5894 33.3086 23.4721 33.8872 23.4923 34.2755C23.3507 34.3443 23.2131 34.4656 23.2819 34.7166C23.3507 34.9675 23.7107 35.0483 23.9414 35.2059C24.1718 35.3757 24.1921 35.4363 24.4107 35.396C24.6411 35.3475 24.9809 35.1171 25.1793 35.1171C25.3777 35.1171 25.519 35.2667 25.519 35.2667C25.519 35.2667 26.0571 35.0078 26.1097 35.0563C26.1582 35.1048 26.1177 35.4163 26.1702 35.4648C26.2235 35.5014 26.8297 35.1414 26.9915 35.04H26.9902Z" fill="#ECD592"/>
<path fill-rule="evenodd" clip-rule="evenodd" d="M38.75 18.8512C36.2218 12.3221 29.9716 11.1125 29.9716 11.1125H12.1399L12.2087 17.7629H15.7599V32.6133H12.1396V39.2517H29.4781C33.6567 39.2517 37.0063 35.0525 37.0063 35.0525C42.3703 27.4395 38.7498 18.8512 38.7498 18.8512H38.75ZM29.5711 30.5784C29.5711 30.5784 28.2111 32.5405 26.7314 32.5405H23.7714L23.7012 17.7792H27.4999C27.4999 17.7792 29.2599 18.1472 30.4895 21.6301C30.4895 21.6301 32.1196 26.6168 29.5711 30.5784Z" fill="white" fill-opacity="0.8"/>
</g>
<defs>
<clipPath id="clip0_146_291">
<rect width="50" height="50" fill="white"/>
</clipPath>
</defs>
</svg>
