<svg width="50" height="50" viewBox="0 0 50 50" fill="none" xmlns="http://www.w3.org/2000/svg">
<g clip-path="url(#clip0_234_221)">
<path d="M29.9252 0.496136C30.0335 0.519466 30.1417 0.542796 30.2532 0.566834C34.8541 1.57482 38.8445 3.75282 42.2694 6.94775C42.3309 7.00478 42.3925 7.06182 42.4559 7.12059C46.1222 10.5446 48.4199 15.1299 49.5013 19.975C49.5237 20.0707 49.546 20.1663 49.5691 20.2649C50.233 23.2145 50.184 26.8365 49.5013 29.7765C49.4779 29.8842 49.4544 29.9919 49.4303 30.1029C48.4172 34.6809 46.2284 38.6515 43.0175 42.0594C42.9602 42.1207 42.9029 42.1819 42.8438 42.245C39.4027 45.8931 34.7946 48.1794 29.9252 49.2554C29.8291 49.2777 29.733 49.2999 29.634 49.3229C26.6696 49.9835 23.0296 49.9348 20.0749 49.2554C19.9666 49.2321 19.8584 49.2088 19.7469 49.1847C15.146 48.1768 11.1557 45.9988 7.73073 42.8038C7.63839 42.7183 7.63839 42.7183 7.54419 42.631C3.87791 39.2069 1.5802 34.6217 0.498815 29.7765C0.476453 29.6809 0.454092 29.5853 0.431052 29.4867C-0.232901 26.537 -0.183901 22.9151 0.498815 19.975C0.522262 19.8673 0.545708 19.7597 0.569865 19.6487C1.58288 15.0707 3.77174 11.1001 6.98261 7.69217C7.03993 7.63091 7.09725 7.56966 7.1563 7.50655C10.5974 3.85846 15.2056 1.57216 20.0749 0.496136C20.171 0.473885 20.2671 0.451635 20.3661 0.42871C23.3305 -0.231949 26.9706 -0.183191 29.9252 0.496136Z" fill="#F4F5FD"/>
<path d="M29.9252 0.496136C30.0335 0.519466 30.1417 0.542796 30.2532 0.566834C34.8541 1.57482 38.8445 3.75282 42.2694 6.94775C42.3309 7.00478 42.3925 7.06182 42.4559 7.12059C46.1222 10.5446 48.4199 15.1299 49.5013 19.975C49.5237 20.0707 49.546 20.1663 49.5691 20.2649C50.233 23.2145 50.184 26.8365 49.5013 29.7765C49.4779 29.8842 49.4544 29.9919 49.4303 30.1029C48.4172 34.6809 46.2284 38.6515 43.0175 42.0594C42.9602 42.1207 42.9029 42.1819 42.8438 42.245C39.4027 45.8931 34.7946 48.1794 29.9252 49.2554C29.8291 49.2777 29.733 49.2999 29.634 49.3229C26.6696 49.9835 23.0296 49.9348 20.0749 49.2554C19.9666 49.2321 19.8584 49.2088 19.7469 49.1847C15.146 48.1768 11.1557 45.9988 7.73073 42.8038C7.63839 42.7183 7.63839 42.7183 7.54419 42.631C3.87791 39.2069 1.5802 34.6217 0.498815 29.7765C0.476453 29.6809 0.454092 29.5853 0.431052 29.4867C-0.232901 26.537 -0.183901 22.9151 0.498815 19.975C0.522262 19.8673 0.545708 19.7597 0.569865 19.6487C1.58288 15.0707 3.77174 11.1001 6.98261 7.69217C7.03993 7.63091 7.09725 7.56966 7.1563 7.50655C10.5974 3.85846 15.2056 1.57216 20.0749 0.496136C20.171 0.473885 20.2671 0.451635 20.3661 0.42871C23.3305 -0.231949 26.9706 -0.183191 29.9252 0.496136ZM16.9577 8.80879C16.8458 8.83992 16.7338 8.87105 16.6185 8.90312C15.9095 9.10178 15.2502 9.35583 14.5886 9.67728C14.4333 9.74901 14.4333 9.74901 14.2749 9.82219C11.6404 11.1291 9.90118 13.5414 8.93482 16.2555C8.55891 17.3829 8.32032 18.5421 8.16617 19.7192C8.1048 20.0991 8.1048 20.0991 7.97835 20.5357C7.81873 21.166 7.81957 21.7799 7.8223 22.4269C7.82206 22.5542 7.82183 22.6816 7.82158 22.8128C7.82141 23.0821 7.82187 23.3515 7.82291 23.6208C7.82423 24.0237 7.82293 24.4266 7.82133 24.8295C7.81976 26.9272 7.85104 29.0757 8.38535 31.118C8.42564 31.2782 8.42564 31.2782 8.46675 31.4416C8.94317 33.2698 9.6578 35.1502 10.7233 36.7244C10.8055 36.7244 10.8878 36.7244 10.9726 36.7244C10.9803 36.791 10.9881 36.8575 10.996 36.926C11.1472 37.3659 11.4023 37.6251 11.7208 37.9651C11.8031 37.9651 11.8853 37.9651 11.9701 37.9651C12.0113 38.0879 12.0524 38.2108 12.0948 38.3373C12.3425 38.5053 12.5921 38.6704 12.843 38.8336C12.9392 38.9315 13.0355 39.0294 13.1347 39.1302C15.0424 40.9922 18.0689 41.8857 20.6753 41.8613C20.883 41.8577 21.0907 41.8539 21.2984 41.85C21.5173 41.8477 21.7362 41.8455 21.9551 41.8434C22.51 41.8374 23.0647 41.8279 23.6196 41.8172C23.9277 41.8115 24.2359 41.807 24.5441 41.8029C26.605 41.7749 28.6484 41.7352 30.6734 41.315C30.8349 41.2823 30.8349 41.2823 30.9997 41.249C33.7008 40.6912 36.6526 39.7344 38.404 37.4688C38.5217 37.3539 38.5217 37.3539 38.6417 37.2367C40.6761 35.1784 41.1929 32.2268 41.7916 29.5235C41.8086 29.4465 41.8257 29.3695 41.8433 29.2901C41.9742 28.641 42.0366 28.0284 42.0401 27.3652C42.0407 27.2759 42.0413 27.1866 42.042 27.0946C42.0438 26.8009 42.0446 26.5071 42.0453 26.2134C42.0457 26.1122 42.046 26.0111 42.0464 25.9068C42.0483 25.3706 42.0494 24.8345 42.05 24.2983C42.0506 23.7491 42.0536 23.2 42.0572 22.6508C42.0595 22.2246 42.0602 21.7984 42.0604 21.3721C42.0607 21.1699 42.0617 20.9678 42.0634 20.7656C42.0896 17.3172 40.7931 14.3967 38.404 11.9105C38.0462 11.5557 37.6772 11.2307 37.2819 10.918C37.1314 10.7966 37.1314 10.7966 36.9779 10.6727C33.7749 8.21599 29.8224 7.71867 25.8963 7.74645C25.7434 7.74681 25.5906 7.74717 25.4332 7.74755C22.5138 7.75789 19.7715 8.0041 16.9577 8.80879Z" fill="#A7AFFD"/>
<path d="M36.3388 13.5001C37.2486 14.7675 36.7654 16.8103 36.5302 18.2452C36.3001 19.497 35.7606 20.6272 34.9126 21.5878C34.8303 21.5878 34.7481 21.5878 34.6633 21.5878C34.6555 21.6595 34.6478 21.7311 34.6399 21.805C34.4969 22.1988 34.2568 22.3482 33.9151 22.5804C33.8328 22.5804 33.7505 22.5804 33.6658 22.5804C33.6246 22.7032 33.5835 22.8261 33.5411 22.9526C32.4503 24.1004 30.8726 25.3027 29.4361 25.9773C29.0072 26.2021 28.6702 26.4788 28.3197 26.8065C28.2545 26.8674 28.1893 26.9284 28.1221 26.9912C26.8479 28.2024 25.3116 31.1412 25.3116 31.1412L25.2493 31.2653C25.2493 31.2653 25.1779 31.419 25.1246 31.5134C24.9496 31.8232 24.8194 31.9479 24.5557 32.2258C24.4775 32.309 24.3994 32.3921 24.3188 32.4778C24.1931 32.6069 24.1931 32.6069 24.0648 32.7386C23.9788 32.8276 23.8929 32.9166 23.8044 33.0083C22.344 34.5026 20.5428 35.7047 18.4538 36.104C18.2972 36.138 18.1407 36.1721 17.9794 36.2072C16.5346 36.512 15.044 36.7944 13.7156 35.9799C12.9332 35.0685 13.034 34.0446 13.1175 32.9048C13.5008 29.9572 15.1862 27.1997 17.503 25.3642C17.6943 25.2208 17.8865 25.0786 18.0797 24.9377C18.1582 24.8795 18.2366 24.8213 18.3174 24.7613C18.8734 24.3705 19.4565 24.0608 20.0627 23.7558C22.1162 22.7183 23.234 21.3996 24.4376 19.483C26.3684 16.4155 28.6505 13.9797 32.2942 13.027C33.6291 12.7835 35.197 12.6553 36.3388 13.5001Z" fill="#9196FD"/>
<path d="M38.6533 16.6255C39.3964 17.5839 39.9495 18.6637 40.4925 19.7427C40.5525 19.859 40.6124 19.9753 40.6742 20.0951C41.1934 21.1241 41.4422 22.0153 41.4277 23.1702C41.4268 23.2678 41.426 23.3655 41.4251 23.4661C41.3784 26.1091 40.3286 28.7266 38.6533 30.7694C38.5879 30.8518 38.5225 30.9341 38.4551 31.019C38.0848 31.4695 37.6798 31.8467 37.2297 32.2175C37.0191 32.3885 37.0191 32.3885 36.7908 32.6227C36.5645 32.8479 36.3326 33.0518 36.0894 33.2586C34.9004 34.2816 34.9004 34.2816 33.9152 35.484C33.8329 35.484 33.7506 35.484 33.6658 35.484C33.6234 35.5838 33.6234 35.5838 33.5801 35.6857C33.1928 36.383 32.6597 36.848 32.0449 37.3451C31.9508 37.4407 31.8568 37.5364 31.7599 37.6349C31.3988 37.9875 31.0215 38.2903 30.6187 38.5935C30.5505 38.6458 30.4823 38.698 30.412 38.7518C29.6948 39.2965 28.9701 39.7678 28.1484 40.1444C28.0254 40.2009 28.0254 40.2009 27.8999 40.2586C26.9452 40.6888 25.9915 41.0082 24.9376 41.0672C24.7939 41.0766 24.6502 41.086 24.5022 41.0958C23.2075 41.1539 22.1532 40.9011 20.9476 40.4468C20.8197 40.3992 20.6917 40.3515 20.5599 40.3024C19.3799 39.8359 18.1405 39.2877 17.0823 38.5858C17.0823 38.5039 17.0823 38.422 17.0823 38.3376C17.1744 38.2954 17.2665 38.2532 17.3614 38.2097C18.1632 37.8285 18.8706 37.4058 19.5795 36.874C21.0449 35.7933 22.6294 34.6939 24.3142 33.9952C24.5925 33.8642 24.8705 33.7323 25.148 33.5997C26.0165 33.1898 26.9025 32.832 27.7987 32.4867C28.2901 32.2958 28.7663 32.096 29.236 31.8565C29.6758 31.6379 29.6758 31.6379 29.9252 31.6379C29.9252 31.556 29.9252 31.4741 29.9252 31.3898C30.1039 31.2463 30.1039 31.2463 30.3538 31.0796C31.9788 29.8904 32.7872 28.2269 33.5168 26.4095C33.6652 26.0562 33.832 25.7203 34.0087 25.3801C34.3619 24.6927 34.6657 23.9895 34.9672 23.2787C35.6483 21.6861 36.3799 20.2281 37.3617 18.7967C37.8422 18.0947 38.2699 17.3853 38.6533 16.6255Z" fill="#999FFD"/>
<path d="M29.551 9.05721C29.6684 9.09016 29.7857 9.12311 29.9066 9.15705C30.6892 9.40408 31.3972 9.79092 32.1149 10.1816C32.2644 10.2627 32.2644 10.2627 32.4169 10.3455C32.5103 10.3977 32.6037 10.45 32.6999 10.5039C32.7839 10.5508 32.8679 10.5976 32.9544 10.6459C33.167 10.7942 33.167 10.7942 33.4164 11.1664C33.1452 11.4362 32.9779 11.4971 32.6215 11.6239C31.7588 11.9582 30.9875 12.4309 30.2027 12.916C28.6757 13.8595 27.0808 14.6093 25.4413 15.3397C25.0736 15.5038 24.707 15.6698 24.3404 15.8364C23.8728 16.0483 23.4031 16.2541 22.9305 16.4546C20.3476 17.5551 18.412 18.8958 17.3394 21.5529C17.2536 21.7688 17.1679 21.9848 17.0822 22.2008C16.1388 24.5295 15.0477 26.7753 13.7156 28.9083C13.6261 29.0532 13.5366 29.1981 13.4473 29.3431C13.2826 29.6095 13.1176 29.8757 12.9524 30.1418C12.3536 31.1116 11.7782 32.0703 11.3466 33.1267C10.717 32.9179 10.5311 32.3212 10.2244 31.7619C10.1632 31.6505 10.1632 31.6505 10.1007 31.5369C8.77313 29.0923 8.22847 26.5069 8.92293 23.7439C9.51556 21.7734 10.4357 19.7838 11.97 18.3624C12.0523 18.3624 12.2194 18.3004 12.2194 18.3004C12.2194 18.3004 12.2433 18.2142 12.2556 18.1379C12.3639 17.8051 12.489 17.7051 12.762 17.4881C13.4016 16.9559 13.9873 16.3738 14.5751 15.7864C14.7617 15.6 14.949 15.4143 15.1364 15.2287C15.2561 15.1095 15.3758 14.9903 15.4954 14.871C15.6563 14.7107 15.6563 14.7107 15.8204 14.5472C16.1005 14.267 16.1005 14.267 16.3341 13.8959C16.4164 13.8959 16.4987 13.8959 16.5835 13.8959C16.6246 13.7731 16.6658 13.6503 16.7082 13.5237C16.7904 13.5237 16.8727 13.5237 16.9575 13.5237C17.0059 13.4154 17.0059 13.4154 17.0553 13.305C18.0882 11.4142 20.4718 9.87707 22.4438 9.18128C22.5864 9.12355 22.729 9.06581 22.8758 9.00633C25.0177 8.1877 27.3952 8.39181 29.551 9.05721Z" fill="#999FFC"/>
</g>
<defs>
<clipPath id="clip0_234_221">
<rect width="50" height="50" fill="white"/>
</clipPath>
</defs>
</svg>
