<svg width="50" height="50" viewBox="0 0 50 50" fill="none" xmlns="http://www.w3.org/2000/svg">
<path d="M50 25C50 38.8071 38.8071 50 25 50C11.1929 50 0 38.8071 0 25C0 11.1929 11.1929 0 25 0C38.8071 0 50 11.1929 50 25Z" fill="white"/>
<path d="M30.0688 5.92868C28.7555 6.2789 27.267 6.99185 26.2039 7.79235C25.1532 8.59285 21.526 12.3077 17.636 16.5728C15.8224 18.5616 13.3584 21.2508 12.1701 22.5266C10.9819 23.8024 9.73108 25.1907 9.39337 25.6035C6.2414 29.5309 6.05379 35.2845 8.91808 39.5247C10.4065 41.7261 12.6579 43.3771 15.0344 44.0275C18.4991 44.9656 22.1013 44.3277 24.7655 42.3014C25.8161 41.5134 29.2308 37.9487 33.9587 32.7079C34.5841 32.0325 36.5103 29.9187 38.2614 28.0175C42.5016 23.4271 42.9268 22.8393 43.6023 20.5503C44.04 19.0494 44.1651 16.3227 43.8524 14.7467C43.3771 12.3577 42.3139 10.394 40.6129 8.73043C39.1745 7.32956 37.4734 6.35395 35.5972 5.87865C34.1463 5.51592 31.6198 5.52843 30.0688 5.92868ZM34.1463 7.37959C38.5116 8.08003 41.6635 11.3946 42.1639 15.8474C42.3765 17.7236 42.1513 19.3371 41.4509 21.1382C40.9756 22.3389 40.6504 22.7767 38.5366 24.9531C37.8111 25.7035 36.2602 27.3546 35.0969 28.6054C33.9462 29.8686 32.9581 30.8943 32.9206 30.8943C32.8831 30.8943 32.3452 30.4065 31.7198 29.8061C29.2683 27.4546 23.4647 21.8511 21.3508 19.7873L19.1119 17.5985L19.5998 17.0857C19.8624 16.8105 20.5253 16.0975 21.0757 15.5097C21.626 14.9218 22.7517 13.7085 23.5772 12.8205C26.8043 9.30579 27.8424 8.48028 29.7936 7.82987C31.4321 7.27953 32.6829 7.15445 34.1463 7.37959ZM19.9875 21.4009C20.9381 22.3264 22.8643 24.1776 24.2652 25.5159C25.666 26.8543 27.4672 28.5803 28.2552 29.3433L29.6811 30.7317L28.8931 31.5947C25.7536 34.9969 22.7267 38.1238 22.0763 38.6366C20.9881 39.4872 18.8493 40.1501 17.1983 40.1501C14.0088 40.1501 10.5441 38.0988 9.24328 35.4471C8.81801 34.5966 8.81801 34.5716 8.81801 32.833C8.81801 30.8443 9.04315 29.7936 9.80613 28.2927C10.3815 27.1544 10.4565 27.0669 14.3715 22.9768C17.5109 19.6873 17.8111 19.4121 18.0238 19.5622C18.1614 19.6498 19.0369 20.4753 19.9875 21.4009Z" fill="#153E3A"/>
<path d="M19.9875 21.4009C20.9381 22.3264 22.8643 24.1776 24.2652 25.5159C25.666 26.8543 27.4672 28.5803 28.2552 29.3433L29.6811 30.7317L28.8931 31.5947C25.7536 34.9969 22.7267 38.1238 22.0763 38.6366C20.9881 39.4872 18.8493 40.1501 17.1983 40.1501C14.0088 40.1501 10.5441 38.0988 9.24328 35.4471C8.81801 34.5966 8.81801 34.5716 8.81801 32.833C8.81801 30.8443 9.04315 29.7936 9.80613 28.2927C10.3815 27.1544 10.4565 27.0669 14.3715 22.9768C17.5109 19.6873 17.8111 19.4121 18.0238 19.5622C18.1614 19.6498 19.0369 20.4753 19.9875 21.4009Z" fill="#53D491"/>
<path d="M34.1463 7.37959C38.5116 8.08003 41.6635 11.3946 42.1639 15.8474C42.3765 17.7236 42.1513 19.3371 41.4509 21.1382C40.9756 22.3389 40.6504 22.7767 38.5366 24.9531C37.8111 25.7035 36.2602 27.3546 35.0969 28.6054C33.9462 29.8686 32.9581 30.8943 32.9206 30.8943C32.8831 30.8943 32.3452 30.4065 31.7198 29.8061C29.2683 27.4546 23.4647 21.8511 21.3508 19.7873L19.1119 17.5985L19.5998 17.0857C19.8624 16.8105 20.5253 16.0975 21.0757 15.5097C21.626 14.9218 22.7517 13.7085 23.5772 12.8205C26.8043 9.30579 27.8424 8.48028 29.7936 7.82987C31.4321 7.27953 32.6829 7.15445 34.1463 7.37959Z" fill="white"/>
</svg>
