<svg width="50" height="50" viewBox="0 0 50 50" fill="none" xmlns="http://www.w3.org/2000/svg">
<g clip-path="url(#clip0_146_420)">
<path d="M25 50C38.8071 50 50 38.8071 50 25C50 11.1929 38.8071 0 25 0C11.1929 0 0 11.1929 0 25C0 38.8071 11.1929 50 25 50Z" fill="#EF0027"/>
<path d="M34.2687 15.4891L11.7188 11.3391L23.5859 41.2016L40.1219 21.0547L34.2687 15.4891ZM33.9062 17.3172L37.3562 20.5969L27.9219 22.3047L33.9062 17.3172ZM25.8719 21.9625L15.9281 13.7157L32.1812 16.7063L25.8719 21.9625ZM25.1641 23.4219L23.5422 36.8282L14.8 14.8235L25.1641 23.4219ZM26.6641 24.1329L37.1125 22.2422L25.1281 36.8407L26.6641 24.1329Z" fill="white"/>
</g>
<defs>
<clipPath id="clip0_146_420">
<rect width="50" height="50" fill="white"/>
</clipPath>
</defs>
</svg>
