<svg width="50" height="50" viewBox="0 0 50 50" fill="none" xmlns="http://www.w3.org/2000/svg">
<g clip-path="url(#clip0_146_285)">
<path d="M25 50C38.8071 50 50 38.8071 50 25C50 11.1929 38.8071 0 25 0C11.1929 0 0 11.1929 0 25C0 38.8071 11.1929 50 25 50Z" fill="#3E73C4"/>
<path d="M31.2839 28.3187C31.2839 24.9999 29.2839 23.8624 25.2839 23.3874C22.4277 23.0077 21.8574 22.2499 21.8574 20.9218C21.8574 19.5937 22.8105 18.7405 24.7136 18.7405C26.4277 18.7405 27.3808 19.3093 27.8558 20.7327C27.9053 20.8704 27.9958 20.9895 28.1151 21.0742C28.2344 21.1588 28.3767 21.2049 28.523 21.2062H30.0464C30.1344 21.2085 30.222 21.193 30.3038 21.1605C30.3856 21.128 30.4599 21.0792 30.5223 21.0171C30.5847 20.955 30.6338 20.8809 30.6667 20.7992C30.6996 20.7176 30.7156 20.6301 30.7136 20.5421V20.4483C30.5274 19.4185 30.0064 18.479 29.2313 17.7757C28.4563 17.0724 27.4707 16.6448 26.4277 16.5593V14.2843C26.4277 13.9046 26.1418 13.6202 25.6668 13.5249H24.2371C23.8574 13.5249 23.5714 13.8093 23.4761 14.2843V16.4655C20.6183 16.8437 18.8105 18.7405 18.8105 21.1124C18.8105 24.2405 20.7136 25.4733 24.7136 25.9483C27.3808 26.4218 28.2371 26.9921 28.2371 28.5093C28.2371 30.0249 26.9043 31.0687 25.0949 31.0687C22.6183 31.0687 21.7621 30.0265 21.4761 28.603C21.3824 28.2249 21.0949 28.0343 20.8089 28.0343H19.1902C19.1023 28.0321 19.015 28.0478 18.9333 28.0804C18.8517 28.113 18.7776 28.1619 18.7153 28.2239C18.6531 28.286 18.6041 28.36 18.5713 28.4416C18.5386 28.5231 18.5226 28.6105 18.5246 28.6983V28.7921C18.9043 31.164 20.4293 32.8702 23.5714 33.3452V35.6218C23.5714 35.9999 23.8574 36.2858 24.3324 36.3796H25.7621C26.1418 36.3796 26.4277 36.0952 26.523 35.6218V33.3437C29.3808 32.8702 31.2839 30.878 31.2839 28.3171V28.3187Z" fill="white"/>
<path d="M20.1436 38.2766C12.7155 35.6203 8.90615 27.3703 11.6686 20.0687C13.0968 16.0844 16.239 13.0516 20.1436 11.6281C20.5249 11.4391 20.714 11.1547 20.714 10.6797V9.35156C20.714 8.97344 20.5249 8.68906 20.1436 8.59375C20.0483 8.59375 19.8577 8.59375 19.7624 8.6875C17.6193 9.35676 15.6298 10.4433 13.9084 11.8846C12.1869 13.326 10.7676 15.0936 9.73216 17.0857C8.69667 19.0778 8.06548 21.255 7.87491 23.4921C7.68434 25.7291 7.93817 27.9818 8.62177 30.1203C10.3343 35.4328 14.4296 39.5109 19.7624 41.2172C20.1436 41.4062 20.5249 41.2172 20.6186 40.8375C20.714 40.7437 20.714 40.6469 20.714 40.4578V39.1297C20.714 38.8453 20.4296 38.4672 20.1436 38.2766ZM30.2374 8.68906C29.8561 8.49844 29.4749 8.68906 29.3811 9.06719C29.2858 9.1625 29.2858 9.25781 29.2858 9.44687V10.775C29.2858 11.1547 29.5702 11.5328 29.8561 11.7234C37.2843 14.3797 41.0936 22.6297 38.3311 29.9312C36.903 33.9156 33.7608 36.9484 29.8561 38.3719C29.4749 38.5609 29.2858 38.8453 29.2858 39.3203V40.6484C29.2858 41.0266 29.4749 41.3109 29.8561 41.4062C29.9515 41.4062 30.1421 41.4062 30.2374 41.3125C32.3805 40.6432 34.37 39.5567 36.0914 38.1154C37.8128 36.674 39.2322 34.9064 40.2676 32.9143C41.3031 30.9222 41.9343 28.745 42.1249 26.5079C42.3154 24.2709 42.0616 22.0182 41.378 19.8797C39.6655 14.4734 35.4749 10.3953 30.2374 8.68906Z" fill="white"/>
</g>
<defs>
<clipPath id="clip0_146_285">
<rect width="50" height="50" fill="white"/>
</clipPath>
</defs>
</svg>
