<svg width="50" height="50" viewBox="0 0 50 50" fill="none" xmlns="http://www.w3.org/2000/svg">
<g clip-path="url(#clip0_146_266)">
<path d="M25 50C38.8071 50 50 38.8071 50 25C50 11.1929 38.8071 0 25 0C11.1929 0 0 11.1929 0 25C0 38.8071 11.1929 50 25 50Z" fill="#26A17B"/>
<path fill-rule="evenodd" clip-rule="evenodd" d="M28.0031 27.161V27.1579C27.8313 27.1704 26.9453 27.2235 24.9687 27.2235C23.3906 27.2235 22.2797 27.1767 21.8891 27.1579V27.1626C15.8141 26.8954 11.2797 25.8376 11.2797 24.572C11.2797 23.3079 15.8141 22.2501 21.8891 21.9782V26.1095C22.2859 26.1376 23.4234 26.2048 24.9953 26.2048C26.8812 26.2048 27.8266 26.1267 28.0031 26.111V21.9813C34.0656 22.2517 38.5891 23.3095 38.5891 24.572C38.5891 25.8376 34.0656 26.8923 28.0031 27.161ZM28.0031 21.5517V17.8548H36.4625V12.2173H13.4297V17.8548H21.8891V21.5501C15.0141 21.8657 9.84375 23.2282 9.84375 24.8595C9.84375 26.4907 15.0141 27.8517 21.8891 28.1688V40.0157H28.0031V28.1657C34.8672 27.8501 40.025 26.4892 40.025 24.8595C40.025 23.2298 34.8672 21.8688 28.0031 21.5517Z" fill="white"/>
</g>
<defs>
<clipPath id="clip0_146_266">
<rect width="50" height="50" fill="white"/>
</clipPath>
</defs>
</svg>
