<svg width="50" height="50" viewBox="0 0 50 50" fill="none" xmlns="http://www.w3.org/2000/svg">
<g clip-path="url(#clip0_234_5)">
<path d="M50 25C50 38.8071 38.8071 50 25 50C11.1929 50 0 38.8071 0 25C0 11.1929 11.1929 0 25 0C38.8071 0 50 11.1929 50 25Z" fill="white"/>
<path d="M5.50012 25H13.7501C13.5001 15.5001 16.8751 13.25 19.7501 13.25C23.8751 13.25 25.5001 17 26.7501 20.875C27.7501 23.975 30.8335 24.9167 32.2501 25H36.2501V23.625C36.2501 21.2468 33.6251 10.875 20.6251 10.75C7.62512 10.625 4.87512 22.125 4.75012 23.625C4.65012 24.825 5.20845 25.0417 5.50012 25Z" fill="#4E4E4E"/>
<path d="M44.5001 25.0047H36.2501C36.5001 34.5047 33.1251 36.7548 30.2501 36.7548C26.1251 36.7548 24.5001 33.0048 23.2501 29.1298C22.2501 26.0298 19.1668 25.0881 17.7501 25.0048H13.7501V26.3797C13.7501 28.758 16.3751 39.1297 29.3751 39.2547C42.3751 39.3797 45.1251 27.8797 45.2501 26.3797C45.3501 25.1797 44.7918 24.9631 44.5001 25.0047Z" fill="#4E4E4E"/>
</g>
<defs>
<clipPath id="clip0_234_5">
<rect width="50" height="50" fill="white"/>
</clipPath>
</defs>
</svg>
