<svg width="32" height="32" viewBox="0 0 32 32" fill="none" xmlns="http://www.w3.org/2000/svg">
<rect width="32" height="32" rx="10" fill="#11161F"/>
<path d="M23.2401 9.56982C25.0762 9.56982 26.736 10.288 27.9272 11.4451L26.7667 12.5502C25.8725 11.6758 24.6231 11.1323 23.2401 11.1323C20.5214 11.1323 18.3175 13.231 18.3175 15.8198C18.3175 18.4087 20.5214 20.5073 23.2401 20.5073C24.5758 20.5073 25.7866 20.0003 26.6735 19.178L27.8339 20.283C26.6501 21.3881 25.0289 22.0698 23.2401 22.0698C19.6152 22.0698 16.6766 19.2716 16.6766 15.8198C16.6766 12.368 19.6152 9.56982 23.2401 9.56982Z" fill="white"/>
<path d="M6.12086 9.56982H7.76174V22.0698H6.12086V9.56982Z" fill="white"/>
<path d="M4.47998 9.56982H6.12086V11.1323H4.47998V9.56982Z" fill="white"/>
<path d="M4.47998 20.5073H6.12086V22.0698H4.47998V20.5073Z" fill="white"/>
<path d="M23.5142 8.31982H25.155V9.88232H23.5142V8.31982Z" fill="white"/>
<path d="M21.2169 8.31982H22.8578V9.88232H21.2169V8.31982Z" fill="white"/>
<path d="M23.5142 21.7573H25.155V23.3198H23.5142V21.7573Z" fill="white"/>
<path d="M21.2169 21.7573H22.8578V23.3198H21.2169V21.7573Z" fill="white"/>
<path d="M6.707 10.7668L7.76174 9.56982L20.1526 19.4704L19.0979 20.6673L6.707 10.7668Z" fill="white"/>
</svg>
