<svg width="566" height="340" viewBox="0 0 566 340" fill="none" xmlns="http://www.w3.org/2000/svg">
<rect y="222" width="28" height="88" rx="5" fill="#00F5FF"/>
<rect x="11" y="192" width="6" height="30" fill="#00F5FF"/>
<rect x="11" y="310" width="6" height="30" fill="#00F5FF"/>
<rect x="38" y="174" width="28" height="82" rx="5" fill="#00F5FF"/>
<rect x="49" y="144" width="6" height="30" fill="#00F5FF"/>
<rect x="49" y="256" width="6" height="30" fill="#00F5FF"/>
<rect x="76" y="48" width="28" height="137" rx="5" fill="#00F5FF"/>
<rect x="87" y="18" width="6" height="30" fill="#00F5FF"/>
<rect x="87" y="185" width="6" height="30" fill="#00F5FF"/>
<rect x="114" y="167" width="28" height="51" rx="5" fill="#FF00AA"/>
<rect x="125" y="137" width="6" height="30" fill="#FF00AA"/>
<rect x="125" y="218" width="6" height="30" fill="#FF00AA"/>
<rect x="152" y="205" width="28" height="82" rx="5" fill="#FF00AA"/>
<rect x="163" y="175" width="6" height="30" fill="#FF00AA"/>
<rect x="163" y="287" width="6" height="30" fill="#FF00AA"/>
<rect x="190" y="175" width="28" height="53" rx="5" fill="#00F5FF"/>
<rect x="201" y="145" width="6" height="30" fill="#00F5FF"/>
<rect x="201" y="228" width="6" height="30" fill="#00F5FF"/>
<rect x="228" y="116" width="28" height="82" rx="5" fill="#00F5FF"/>
<rect x="239" y="86" width="6" height="30" fill="#00F5FF"/>
<rect x="239" y="198" width="6" height="30" fill="#00F5FF"/>
<rect x="266" y="177" width="28" height="122" rx="5" fill="#FF00AA"/>
<rect x="277" y="147" width="6" height="30" fill="#FF00AA"/>
<rect x="277" y="299" width="6" height="32" fill="#FF00AA"/>
<rect x="304" y="141" width="28" height="37" rx="5" fill="#00F5FF"/>
<rect x="315" y="111" width="6" height="30" fill="#00F5FF"/>
<rect x="315" y="178" width="6" height="30" fill="#00F5FF"/>
<rect x="342" y="74" width="28" height="82" rx="5" fill="#00F5FF"/>
<rect x="353" y="46" width="6" height="28" fill="#00F5FF"/>
<rect x="353" y="156" width="6" height="30" fill="#00F5FF"/>
<rect x="380" y="108" width="28" height="96" rx="5" fill="#FF00AA"/>
<rect x="391" y="78" width="6" height="30" fill="#FF00AA"/>
<rect x="391" y="204" width="6" height="32" fill="#FF00AA"/>
<rect x="418" y="171" width="28" height="76" rx="5" fill="#FF00AA"/>
<rect x="429" y="141" width="6" height="30" fill="#FF00AA"/>
<rect x="429" y="247" width="6" height="32" fill="#FF00AA"/>
<rect x="459" y="164" width="28" height="32" rx="5" fill="#00F5FF"/>
<rect x="470" y="136" width="6" height="28" fill="#00F5FF"/>
<rect x="470" y="196" width="6" height="30" fill="#00F5FF"/>
<rect x="500" y="103" width="28" height="75" rx="5" fill="#00F5FF"/>
<rect x="511" y="75" width="6" height="28" fill="#00F5FF"/>
<rect x="511" y="178" width="6" height="30" fill="#00F5FF"/>
<rect x="538" y="28" width="28" height="94" rx="5" fill="#00F5FF"/>
<rect x="549" width="6" height="28" fill="#00F5FF"/>
<rect x="549" y="122" width="6" height="30" fill="#00F5FF"/>
</svg>
